<svg width="17" height="10" viewBox="0 0 17 10" fill="none" xmlns="http://www.w3.org/2000/svg">
<path d="M1.29167 5.25085L4.83333 8.79252C5.0207 8.98038 5.27501 9.08612 5.54034 9.08647C5.80567 9.08682 6.06026 8.98176 6.24812 8.79439C6.43599 8.60703 6.54172 8.35271 6.54208 8.08739C6.54243 7.82206 6.43736 7.56746 6.25 7.3796L4.41417 5.54252H16C16.2652 5.54252 16.5196 5.43716 16.7071 5.24962C16.8946 5.06209 17 4.80773 17 4.54252C17 4.2773 16.8946 4.02295 16.7071 3.83541C16.5196 3.64787 16.2652 3.54252 16 3.54252H4.41417L6.25 1.70918C6.43786 1.52165 6.54353 1.26718 6.54377 1.00173C6.544 0.736293 6.43878 0.481629 6.25125 0.293768C6.06372 0.105906 5.80924 0.000234811 5.5438 3.90855e-07C5.27836 -0.00023403 5.02369 0.104988 4.83583 0.292518L1.29417 3.83418C1.20078 3.92692 1.12661 4.03719 1.07592 4.15865C1.02524 4.28011 0.999027 4.41038 0.998795 4.542C0.998562 4.67361 1.02431 4.80398 1.07457 4.92562C1.12483 5.04726 1.1986 5.15778 1.29167 5.25085Z" fill="white"/>
</svg>
