<svg width="131" height="136" viewBox="0 0 131 136" fill="none" xmlns="http://www.w3.org/2000/svg">
<g clip-path="url(#clip0_701_44)">
<path d="M95.7046 14.1804C67.574 -2.05025 58.8215 -5.74163 30.7318 10.4563C2.6421 26.6541 0 36.1322 0 68.5853C0 101.038 4.70343 106.923 32.7932 123.146C60.8829 139.368 68.4084 140.67 96.4981 124.439C124.588 108.208 118.183 99.2049 127.124 67.9632C136.195 36.345 123.762 30.411 95.7046 14.1804Z" fill="#E0F6FF"/>
<path d="M88.7334 65.6705H68.6254C66.5668 65.6705 64.8921 63.9958 64.8921 61.9371V47.5478C64.8921 45.4891 66.5668 43.8145 68.6254 43.8145H88.7334C90.7921 43.8145 92.4668 45.4891 92.4668 47.5478V61.9371C92.4668 63.9958 90.7921 65.6705 88.7334 65.6705ZM68.6254 45.9478C67.7428 45.9478 67.0254 46.6651 67.0254 47.5478V61.9371C67.0254 62.8198 67.7428 63.5371 68.6254 63.5371H88.7334C89.6161 63.5371 90.3334 62.8198 90.3334 61.9371V47.5478C90.3334 46.6651 89.6161 45.9478 88.7334 45.9478H68.6254Z" fill="#00A0E1" stroke="#00A0E1" stroke-width="0.5"/>
<path d="M91.4001 54.2749H80.6267C80.0374 54.2749 79.5601 53.7976 79.5601 53.2083C79.5601 52.6189 80.0374 52.1416 80.6267 52.1416H91.4001C91.9894 52.1416 92.4667 52.6189 92.4667 53.2083C92.4667 53.7976 91.9894 54.2749 91.4001 54.2749Z" fill="#00A0E1" stroke="#00A0E1" stroke-width="0.5"/>
<path d="M76.7321 54.2749H65.9588C65.3694 54.2749 64.8921 53.7976 64.8921 53.2083C64.8921 52.6189 65.3694 52.1416 65.9588 52.1416H76.7321C77.3214 52.1416 77.7988 52.6189 77.7988 53.2083C77.7988 53.7976 77.3201 54.2749 76.7321 54.2749Z" fill="#00A0E1" stroke="#00A0E1" stroke-width="0.5"/>
<path d="M80.6269 56.2214H76.7322C76.1429 56.2214 75.6655 55.744 75.6655 55.1547V51.26C75.6655 50.6707 76.1429 50.1934 76.7322 50.1934H80.6269C81.2162 50.1934 81.6935 50.6707 81.6935 51.26V55.1547C81.6935 55.744 81.2162 56.2214 80.6269 56.2214ZM77.7989 54.088H79.5602V52.3267H77.7989V54.088Z" fill="#00A0E1" stroke="#00A0E1" stroke-width="0.5"/>
<path d="M83.1361 45.9467C82.5468 45.9467 82.0695 45.4693 82.0695 44.88V43.04C82.0695 42.54 81.6628 42.1333 81.1628 42.1333H76.1948C75.6948 42.1333 75.2881 42.54 75.2881 43.04V44.88C75.2881 45.4693 74.8108 45.9467 74.2215 45.9467C73.6321 45.9467 73.1548 45.4693 73.1548 44.88V43.04C73.1548 41.364 74.5188 40 76.1948 40H81.1628C82.8388 40 84.2028 41.364 84.2028 43.04V44.88C84.2028 45.4693 83.7255 45.9467 83.1361 45.9467Z" fill="#00A0E1" stroke="#00A0E1" stroke-width="0.5"/>
<path d="M60.8413 95.4664H40.7333C38.6747 95.4664 37 93.7917 37 91.733V77.3437C37 75.285 38.6747 73.6104 40.7333 73.6104H60.8413C62.9 73.6104 64.5747 75.285 64.5747 77.3437V91.733C64.5747 93.7917 62.9 95.4664 60.8413 95.4664ZM40.7333 75.7437C39.8507 75.7437 39.1333 76.461 39.1333 77.3437V91.733C39.1333 92.6157 39.8507 93.333 40.7333 93.333H60.8413C61.724 93.333 62.4413 92.6157 62.4413 91.733V77.3437C62.4413 76.461 61.724 75.7437 60.8413 75.7437H40.7333Z" fill="#00A0E1" stroke="#00A0E1" stroke-width="0.5"/>
<path d="M63.508 84.0708H52.7346C52.1453 84.0708 51.668 83.5935 51.668 83.0042C51.668 82.4148 52.1453 81.9375 52.7346 81.9375H63.508C64.0973 81.9375 64.5746 82.4148 64.5746 83.0042C64.5746 83.5935 64.0973 84.0708 63.508 84.0708Z" fill="#00A0E1" stroke="#00A0E1" stroke-width="0.5"/>
<path d="M48.84 84.0708H38.0667C37.4773 84.0708 37 83.5935 37 83.0042C37 82.4148 37.4773 81.9375 38.0667 81.9375H48.84C49.4293 81.9375 49.9067 82.4148 49.9067 83.0042C49.9067 83.5935 49.4293 84.0708 48.84 84.0708Z" fill="#00A0E1" stroke="#00A0E1" stroke-width="0.5"/>
<path d="M52.7348 86.0187H48.8401C48.2508 86.0187 47.7734 85.5414 47.7734 84.9521V81.0574C47.7734 80.4681 48.2508 79.9907 48.8401 79.9907H52.7348C53.3241 79.9907 53.8014 80.4681 53.8014 81.0574V84.9521C53.8014 85.5401 53.3241 86.0187 52.7348 86.0187ZM49.9068 83.8854H51.6681V82.1241H49.9068V83.8854Z" fill="#00A0E1" stroke="#00A0E1" stroke-width="0.5"/>
<path d="M55.2452 75.7426C54.6559 75.7426 54.1786 75.2652 54.1786 74.6759V72.8359C54.1786 72.3359 53.7719 71.9292 53.2719 71.9292H48.3039C47.8039 71.9292 47.3972 72.3359 47.3972 72.8359V74.6759C47.3972 75.2652 46.9199 75.7426 46.3306 75.7426C45.7412 75.7426 45.2639 75.2652 45.2639 74.6759V72.8359C45.2639 71.1599 46.6279 69.7959 48.3039 69.7959H53.2719C54.9479 69.7959 56.3119 71.1599 56.3119 72.8359V74.6759C56.3119 75.2652 55.8346 75.7426 55.2452 75.7426Z" fill="#00A0E1" stroke="#00A0E1" stroke-width="0.5"/>
<path d="M50.4988 65.8189C49.9095 65.8189 49.4321 65.3415 49.4321 64.7522V56.4069C49.4321 54.6775 50.8388 53.2695 52.5695 53.2695H60.0095C60.5988 53.2695 61.0761 53.7469 61.0761 54.3362C61.0761 54.9255 60.5988 55.4029 60.0095 55.4029H52.5695C52.0161 55.4029 51.5655 55.8535 51.5655 56.4069V64.7522C51.5655 65.3402 51.0868 65.8189 50.4988 65.8189Z" fill="#00A0E1" stroke="#00A0E1" stroke-width="0.5"/>
<path d="M50.4987 65.8187C50.196 65.8187 49.9067 65.6893 49.704 65.464L46.2707 61.636C45.8774 61.1973 45.9134 60.5227 46.352 60.1293C46.7907 59.736 47.4654 59.772 47.8587 60.2107L50.4974 63.1533L53.136 60.2107C53.5294 59.772 54.204 59.736 54.6427 60.1293C55.0814 60.5227 55.1174 61.1973 54.724 61.636L51.2907 65.464C51.0907 65.6893 50.8014 65.8187 50.4987 65.8187Z" fill="#00A0E1" stroke="#00A0E1" stroke-width="0.5"/>
<path d="M76.8973 82.1978H69.4573C68.868 82.1978 68.3906 81.7204 68.3906 81.1311C68.3906 80.5418 68.868 80.0644 69.4573 80.0644H76.8973C77.4506 80.0644 77.9013 79.6138 77.9013 79.0604V70.7151C77.9013 70.1258 78.3786 69.6484 78.968 69.6484C79.5573 69.6484 80.0346 70.1258 80.0346 70.7151V79.0604C80.0346 80.7911 78.628 82.1978 76.8973 82.1978Z" fill="#00A0E1" stroke="#00A0E1" stroke-width="0.5"/>
<path d="M82.4026 75.6096C82.1106 75.6096 81.8186 75.4896 81.6079 75.255L78.9679 72.3123L76.3279 75.255C75.9346 75.6936 75.2599 75.7296 74.8213 75.3363C74.3826 74.943 74.3466 74.2683 74.7399 73.8296L78.1733 70.0016C78.3759 69.7763 78.6639 69.647 78.9666 69.647C79.2693 69.647 79.5586 69.7763 79.7599 70.0016L83.1933 73.8296C83.5866 74.2683 83.5506 74.943 83.1119 75.3363C82.9106 75.5203 82.6559 75.6096 82.4026 75.6096Z" fill="#00A0E1" stroke="#00A0E1" stroke-width="0.5"/>
</g>
<defs>
<clipPath id="clip0_701_44">
<rect width="130.044" height="136" fill="white"/>
</clipPath>
</defs>
</svg>
