<svg width="131" height="136" viewBox="0 0 131 136" fill="none" xmlns="http://www.w3.org/2000/svg">
<g clip-path="url(#clip0_701_89)">
<path d="M95.7046 14.1804C67.574 -2.05025 58.8215 -5.74163 30.7318 10.4563C2.6421 26.6541 0 36.1322 0 68.5853C0 101.038 4.70343 106.923 32.7932 123.146C60.8829 139.368 68.4084 140.67 96.4981 124.439C124.588 108.208 118.183 99.2049 127.124 67.9632C136.195 36.345 123.762 30.411 95.7046 14.1804Z" fill="#E0F6FF"/>
<g clip-path="url(#clip1_701_89)">
<path d="M90.7062 66.5228H67.5809C65.213 66.5228 63.2871 64.597 63.2871 62.229V45.6805C63.2871 43.3126 65.213 41.3867 67.5809 41.3867H90.7062C93.0742 41.3867 95 43.3126 95 45.6805V62.229C95 64.597 93.0742 66.5228 90.7062 66.5228ZM67.5809 43.8409C66.5661 43.8409 65.7413 44.6657 65.7413 45.6805V62.229C65.7413 63.2439 66.5661 64.0687 67.5809 64.0687H90.7062C91.7211 64.0687 92.5459 63.2439 92.5459 62.229V45.6805C92.5459 44.6657 91.7211 43.8409 90.7062 43.8409H67.5809Z" fill="#00A0E1"/>
<path d="M93.7739 53.4162H81.3844C80.7065 53.4162 80.158 52.8677 80.158 52.1898C80.158 51.5119 80.7065 50.9634 81.3844 50.9634H93.7739C94.4518 50.9634 95.0003 51.5119 95.0003 52.1898C95.0003 52.8677 94.4518 53.4162 93.7739 53.4162Z" fill="#00A0E1"/>
<path d="M76.9045 53.4162H64.515C63.8371 53.4162 63.2886 52.8677 63.2886 52.1898C63.2886 51.5119 63.8371 50.9634 64.515 50.9634H76.9045C77.5824 50.9634 78.1309 51.5119 78.1309 52.1898C78.1309 52.8677 77.581 53.4162 76.9045 53.4162Z" fill="#00A0E1"/>
<path d="M81.3828 55.6549H76.9044C76.2265 55.6549 75.678 55.1064 75.678 54.4285V49.95C75.678 49.2722 76.2265 48.7236 76.9044 48.7236H81.3828C82.0607 48.7236 82.6092 49.2722 82.6092 49.95V54.4285C82.6092 55.1064 82.0607 55.6549 81.3828 55.6549ZM78.1308 53.2021H80.1564V51.1765H78.1308V53.2021Z" fill="#00A0E1"/>
<path d="M84.2697 43.8383C83.5918 43.8383 83.0433 43.2898 83.0433 42.6119V40.496C83.0433 39.9205 82.5756 39.4528 82.0002 39.4528H76.2872C75.7117 39.4528 75.2441 39.9205 75.2441 40.496V42.6119C75.2441 43.2898 74.6956 43.8383 74.0177 43.8383C73.3398 43.8383 72.7913 43.2898 72.7913 42.6119V40.496C72.7913 38.5687 74.36 37 76.2872 37H82.0002C83.9274 37 85.4961 38.5687 85.4961 40.496V42.6119C85.4961 43.2898 84.9476 43.8383 84.2697 43.8383Z" fill="#00A0E1"/>
<path d="M46.752 81.4622C43.1981 81.4622 40.3181 78.5808 40.3181 75.0282C40.3181 71.4756 43.1995 68.5942 46.752 68.5942C50.3046 68.5942 53.186 71.4756 53.186 75.0282C53.1819 78.5794 50.3032 81.4581 46.752 81.4622ZM46.752 70.8638C44.4528 70.8638 42.5889 72.7277 42.5889 75.0269C42.5889 77.326 44.4528 79.1899 46.752 79.1899C49.0512 79.1899 50.9151 77.326 50.9151 75.0269C50.9137 72.7277 49.0499 70.8651 46.752 70.8638ZM52.7938 98.1158H40.6819C37.0175 98.1158 35 96.1104 35 92.4676C35 88.4379 37.2803 83.7331 43.7049 83.7331H49.7601C56.186 83.7331 58.465 88.4366 58.465 92.4676C58.469 96.1104 56.4515 98.1158 52.7925 98.1158H52.7938ZM43.7102 86.0039C40.4111 85.7492 37.5283 88.2169 37.2736 91.5161C37.2493 91.8328 37.2493 92.1508 37.2763 92.4662C37.2763 94.8341 38.2965 95.8436 40.6873 95.8436H52.7951C55.186 95.8436 56.2062 94.8341 56.2062 92.4662C56.4757 89.1684 54.0216 86.2748 50.7224 86.0053C50.4043 85.9797 50.0849 85.9783 49.7668 86.0039H43.7116H43.7102Z" fill="#00A0E1"/>
<path d="M46.7345 66.6925C46.0566 66.6925 45.5081 66.144 45.5081 65.4661V55.869C45.5081 53.8798 47.1253 52.2612 49.1159 52.2612H57.6725C58.3504 52.2612 58.8989 52.8097 58.8989 53.4876C58.8989 54.1655 58.3504 54.7141 57.6725 54.7141H49.1159C48.4798 54.7141 47.9609 55.2329 47.9609 55.869V65.4661C47.9609 66.1426 47.411 66.6925 46.7345 66.6925Z" fill="#00A0E1"/>
<path d="M46.7345 66.6926C46.3868 66.6926 46.0539 66.5443 45.8208 66.2842L41.872 61.8812C41.4191 61.3772 41.4609 60.6009 41.965 60.1481C42.469 59.6953 43.2453 59.737 43.6981 60.2411L46.7332 63.6252L49.7682 60.2411C50.221 59.737 50.996 59.6953 51.5014 60.1481C52.0067 60.6009 52.0472 61.3759 51.5943 61.8812L47.6456 66.2842C47.4151 66.543 47.0822 66.6926 46.7345 66.6926Z" fill="#00A0E1"/>
<path d="M77.0943 85.5279H68.5377C67.8598 85.5279 67.3113 84.9794 67.3113 84.3015C67.3113 83.6236 67.8598 83.0751 68.5377 83.0751H77.0943C77.7304 83.0751 78.2493 82.5562 78.2493 81.9201V72.3231C78.2493 71.6452 78.7978 71.0967 79.4757 71.0967C80.1536 71.0967 80.7021 71.6452 80.7021 72.3231V81.9201C80.7021 83.9107 79.0849 85.5279 77.0943 85.5279Z" fill="#00A0E1"/>
<path d="M83.4258 77.9526C83.0903 77.9526 82.7547 77.8151 82.5121 77.5443L79.4757 74.1602L76.4393 77.5443C75.9865 78.0483 75.2115 78.0901 74.7062 77.6372C74.2008 77.1844 74.1603 76.4095 74.6132 75.9041L78.562 71.5011C78.7951 71.2424 79.1266 71.0928 79.4743 71.0928C79.8221 71.0928 80.1549 71.241 80.3867 71.5011L84.3355 75.9041C84.7884 76.4081 84.7466 77.1844 84.2425 77.6372C84.0107 77.8488 83.7183 77.9513 83.4272 77.9513L83.4258 77.9526Z" fill="#00A0E1"/>
</g>
</g>
<defs>
<clipPath id="clip0_701_89">
<rect width="130.044" height="136" fill="white"/>
</clipPath>
<clipPath id="clip1_701_89">
<rect width="60" height="61.1159" fill="white" transform="translate(35 37)"/>
</clipPath>
</defs>
</svg>
