<?xml version="1.0" encoding="utf-8"?>
<!-- Generator: Adobe Illustrator 26.0.0, SVG Export Plug-In . SVG Version: 6.00 Build 0)  -->
<svg version="1.1" id="Layer_1" xmlns="http://www.w3.org/2000/svg" xmlns:xlink="http://www.w3.org/1999/xlink" x="0px" y="0px"
	 viewBox="0 0 1024 281.9" style="enable-background:new 0 0 1024 281.9;" xml:space="preserve">
<style type="text/css">
	.st0{fill:#FFFFFF;}
	.st1{fill:url(#SVGID_1_);}
	.st2{fill:url(#SVGID_00000053516697113776213560000003784184393989726863_);}
	.st3{fill:url(#SVGID_00000060029846628910394990000006726844043467166848_);}
	.st4{fill:url(#SVGID_00000169536262392349525630000006203649939925345679_);}
	.st5{fill:url(#SVGID_00000159433371621929157870000003376026388035329675_);}
	.st6{fill:url(#SVGID_00000073002224367942245600000007219079301065919375_);}
	.st7{fill:url(#SVGID_00000045598892700535630290000015141073305554615731_);}
	.st8{fill:url(#SVGID_00000013875838447956781970000005142973899590977443_);}
	.st9{fill:#82287F;}
	.st10{fill:url(#SVGID_00000091693407128578798450000004504804539109529529_);}
	.st11{fill:url(#SVGID_00000133527828386206943950000000964151752475835307_);}
	.st12{fill:url(#SVGID_00000036961820592136861700000007512948400444505477_);}
	.st13{fill:url(#SVGID_00000118389317222128322380000001803966586799136390_);}
	.st14{fill:#B1D23F;}
	.st15{fill:url(#SVGID_00000004540922908297291040000002197454703437356676_);}
	.st16{fill:url(#SVGID_00000082355781311874189220000010527571535332148146_);}
	.st17{fill:#EA7024;}
	.st18{fill:url(#SVGID_00000111903277682117562460000010979745740043859358_);}
	.st19{fill:#D71A63;}
	.st20{fill:url(#SVGID_00000068644889537014161810000006433397611447352752_);}
	.st21{fill:#E5C31F;}
	.st22{fill:url(#SVGID_00000128485761528668285240000017459758223155176629_);}
	.st23{fill:url(#SVGID_00000124881967475019290480000016624288658960045229_);}
	.st24{fill:url(#SVGID_00000150794835354143205250000002365422628024430522_);}
	.st25{fill:url(#SVGID_00000158707358321974483170000007431948557799136652_);}
</style>
<g id="Layer_1_00000059289798843516080240000002013215606453712298_">
</g>
<g>
	<path class="st0" d="M270.1,173.2V83.8c0-2.9,1-5.3,3-7.4c2-2,4.5-3,7.4-3h36.6c10.2,0,18.1,2.2,23.5,6.3c5.4,4.6,8.2,11,8.2,18.8
		c0,5-1.1,9.3-3.2,12.8c-2.2,3.3-5.1,5.9-9,7.9c5,2.2,8.9,5.1,11.6,9c2.5,3.7,3.8,8.5,3.8,14.5c0,9.7-3.1,17.2-9.3,22.6
		c-6.3,5.2-15.4,7.9-27,7.9H270.1z M289.9,112h23.5c5,0,8.7-0.9,11-2.6c2.3-1.7,3.5-4.5,3.5-8.2c0-3.7-1.2-6.3-3.5-8.2
		c-1.9-1.5-5.7-2.3-11.3-2.3h-23.2V112z M289.9,155.2h24.4c5.4,0,9.6-1.1,12.5-3.2c2.7-1.9,4-5.2,4-9.9c0-4.6-1.4-8-4-10.2
		c-2.5-1.9-6.8-2.9-12.8-2.9h-24.1V155.2z"/>
	<path class="st0" d="M362.4,173.2v-37.4c0-7.6,1.1-13.8,3.3-19c2.2-5.1,5.3-9.2,9.2-12.3c3.7-2.9,8-5,12.9-6.3c4.9-1.4,10-2,15.2-2
		c0.4,0,0.9,0,1.4,0c0.6,0,1.1,0,1.4,0v20.6h-6.6c-5.6,0-9.7,1.4-12.5,4c-2.7,2.7-4,7-4,12.8v39.7L362.4,173.2L362.4,173.2z"/>
	<path class="st0" d="M463.7,170c-4,2.2-8.4,3.5-12.9,3.9c-4.5,0.5-8.6,0.7-12,0.7c-7,0-13.1-1.9-18.2-5.6c-5.2-3.8-7.9-10-7.9-18.7
		c0-8.2,2.4-13.9,7.1-17.4c4.8-3.5,10.7-5.8,18.1-7c0.9,0,2.1-0.1,3.5-0.4c1.4-0.3,2.9-0.5,4.6-0.7c8.5-1.2,12.8-3.7,12.8-7.6
		c0-2.9-1.5-4.8-4.5-5.6c-3-0.9-5.8-1.3-8.3-1.3c-2.7,0-5.1,0.4-7.3,1.2c-2.2,0.8-3.7,2.2-4.6,4.3h-19.4c0.8-6,3.5-10.9,8.2-14.8
		c5.2-4.5,12.7-6.6,22.4-6.6c10.8,0,19,1.9,24.4,5.5c5.6,3.9,8.4,9.3,8.4,16.2v26.4c0,7.7-1.4,13.8-4.2,18.1
		C470.9,164.9,467.5,168.1,463.7,170z M459,134.3c-2.7,1.4-6.5,2.6-11.3,3.8l-6.6,1.4c-3.5,0.9-6,2.2-7.6,3.8c-1.4,2.2-2,4.3-2,6.3
		c0,2.9,0.9,5.2,2.6,7c1.7,1.5,4.3,2.3,7.6,2.3c5.4,0,9.7-1.5,12.8-4.6c3.1-3.1,4.6-7.4,4.6-12.8V134.3z"/>
	<path class="st0" d="M554.5,173.2h-10.2c-2.9,0-5.3-0.9-7.1-2.7c-1.8-1.9-2.7-4.3-2.7-7.1v-39.5c0-4.6-1.4-8-4.2-10.2
		c-2.8-2.1-5.9-3.2-9.4-3.2c-3.5,0-6.6,1.1-9.3,3.2c-2.7,2.2-4,5.5-4,10.2v49.3h-20.3V128c0-13.1,3.5-21.9,10.3-26.4
		s14.4-6.9,22.8-7.3c8.5,0,16.4,2.2,23.5,6.6c7.1,4.5,10.7,13.4,10.7,27C554.5,127.9,554.5,173.2,554.5,173.2z"/>
	<path class="st0" d="M615.1,73.1h9.9c2.7,0,5,1,7,3c1.9,2,2.9,4.3,2.9,6.9v56.6c0,13.7-4,23-11.9,27.8c-7.9,4.8-16.5,7.3-25.8,7.3
		c-5,0-10-0.8-14.8-2.5c-4.8-1.7-8.7-4.3-11.6-8c-5.6-7.1-8.4-17-8.4-29.3c0-12.2,2.8-21.9,8.4-29.3c5.8-7.6,13.3-11.3,22.4-11.3
		c4.8,0,9.1,0.9,12.8,2.9c3.9,2.3,7,5.3,9.3,9L615.1,73.1L615.1,73.1z M582,134c0,7.7,1.4,13.6,4.3,17.7c2.9,4,7.1,6.1,12.5,6.1
		c5.2,0,9.3-2,12.2-6.1c2.7-4,4-10,4-17.7c0-7-1.4-12.5-4.3-16.5c-3.1-3.9-7.3-5.8-12.5-5.8c-5,0-9,2-11.9,6.1
		C583.5,121.6,582,127,582,134z"/>
	<path class="st0" d="M733.7,138.7c-0.9,11.6-5.3,20.7-13.1,27.3c-7.9,6.3-18.4,9.6-31.3,9.6c-15.1,0-26.6-4.5-34.6-13.6
		c-7.9-8.7-11.9-21.6-11.9-38.6c0-17.4,4-30.4,12.2-39.2c8.3-9.1,20.3-13.6,36-13.6c12.8,0,22.9,3.2,30.4,9.6
		c7.1,6.2,11.2,14.9,12.2,26.1h-12.5c-4.6,0-7.9-2-9.9-6.1c-1.4-2.5-3-4.8-4.9-6.6c-3.9-2.9-9-4.3-15.4-4.3
		c-8.9,0-15.8,2.9-20.6,8.7c-4.6,5.7-6.9,14.2-6.9,25.4c0,10.8,2.3,19.1,7,25c4.5,6,11.1,9,20,9c6.2,0,11.3-1.5,15.4-4.6
		c3.7-2.9,6.3-7.6,7.9-13.9L733.7,138.7L733.7,138.7z"/>
	<path class="st0" d="M744.5,173.2v-37.4c0-7.6,1.1-13.8,3.3-19c2.2-5.1,5.3-9.2,9.2-12.3c3.7-2.9,8-5,12.9-6.3c4.9-1.4,10-2,15.2-2
		c0.4,0,0.9,0,1.4,0s1.1,0,1.4,0v20.6h-6.6c-5.6,0-9.7,1.4-12.5,4c-2.7,2.7-4,7-4,12.8v39.7L744.5,173.2L744.5,173.2z"/>
	<path class="st0" d="M806,166.2c-4-3.5-7-8.2-8.7-14.1c-1.7-5.9-2.6-12-2.6-18.4c0-5.2,0.7-10.5,2.2-15.7c1.4-5.2,3.8-9.6,6.9-13.1
		c5-5.8,11.5-9.2,19.4-10.3c7.9-1.1,15.1-0.4,21.5,1.9c7.4,2.9,12.8,7.9,16.2,15.1c3.3,6.3,4.9,13.8,4.9,22.4c0,6.2-0.6,11.5-2,15.9
		c-1.4,4.5-3.1,8.2-5.2,11.3c-4.6,6.3-10.5,10.3-17.7,11.9c-6.3,1.7-12.8,1.9-19.3,0.4C815,172.2,809.8,169.7,806,166.2z
		 M819.9,115.1c-4,4.5-5.9,11.1-5.5,19.8c0.4,8.8,2,14.9,4.9,18.4c1.2,1.5,3.2,2.9,6.1,3.9c2.9,1.1,5.8,1.2,8.9,0.3
		c3-0.9,5.6-3,8-6.5c2.3-3.5,3.6-9.1,3.8-16.8c0-7-1.1-12.2-3.3-15.7c-2.2-3.5-4.8-5.7-7.7-6.6c-2.9-0.9-5.8-1-8.7-0.1
		C823.3,112.7,821.2,113.8,819.9,115.1z"/>
	<path class="st0" d="M929,149.4h14.5c-2.2,8.2-6.2,14.3-12.2,18.5c-6,4.5-13.6,6.6-22.6,6.6c-11,0-19.6-3.6-25.8-10.7
		c-6.2-7-9.3-17-9.3-29.9c0-12.4,3-22.1,9-29c6.2-7.1,14.8-10.7,25.8-10.7c11.6,0,20.6,3.5,27,10.5c3.5,4.3,6,9.2,7.6,14.8h-20.3
		c-0.9-1.9-1.9-3.4-2.9-4.3c-2.5-2.7-6.1-4-10.7-4c-4.3,0-7.7,1.4-10.5,4c-3.5,3.9-5.2,10.2-5.2,19.1s1.7,15.2,5.2,18.8
		c2.5,3.1,6.3,4.6,11.3,4.6c3.3,0,6.1-0.6,8.4-2c0.6-0.2,1.1-0.5,1.6-1c0.5-0.5,1-1,1.6-1.6c0.4-0.6,1.2-1.4,2.3-2.3
		C925,149.9,926.7,149.4,929,149.4z"/>
	<path class="st0" d="M973.4,96v28.4L998,96h24.4l-27.6,29.6l27.8,47.6h-24.4l-14.2-26.1c-2.9-5.2-5.4-7.4-7.6-6.6s-3.2,1.9-3.2,3.5
		v10.7v18.5H953V73.4h10.5c2.7,0,5,0.9,7,2.9c1.9,1.9,2.9,4.2,2.9,6.6L973.4,96L973.4,96z"/>
	<g>
		
			<linearGradient id="SVGID_1_" gradientUnits="userSpaceOnUse" x1="62.284" y1="759.1564" x2="66.6458" y2="759.1564" gradientTransform="matrix(1 0 0 -1 0 923.3879)">
			<stop  offset="0" style="stop-color:#214B37"/>
			<stop  offset="1" style="stop-color:#2F6444"/>
		</linearGradient>
		<path class="st1" d="M65.2,182c-1.2-4.8-1.7-9.8-1.7-15c0-7.1,1.2-13.8,3.2-20.1l-0.4-0.4l-3.8,3.5
			C62.3,160.4,61.6,171.7,65.2,182z"/>
		
			<linearGradient id="SVGID_00000135682371184402980590000006562810014582856068_" gradientUnits="userSpaceOnUse" x1="60.8665" y1="777.0815" x2="82.4177" y2="777.0815" gradientTransform="matrix(1 0 0 -1 0 923.3879)">
			<stop  offset="0" style="stop-color:#214B37"/>
			<stop  offset="1" style="stop-color:#2F6444"/>
		</linearGradient>
		<polygon style="fill:url(#SVGID_00000135682371184402980590000006562810014582856068_);" points="62.5,142.8 62.5,149.8 
			66.2,146.4 		"/>
		
			<linearGradient id="SVGID_00000155864229089407148460000017669495606026708353_" gradientUnits="userSpaceOnUse" x1="144.4514" y1="811.0922" x2="144.8813" y2="811.0922" gradientTransform="matrix(1 0 0 -1 0 923.3879)">
			<stop  offset="1.020000e-02" style="stop-color:#175179"/>
			<stop  offset="1" style="stop-color:#18446C"/>
		</linearGradient>
		<path style="fill:url(#SVGID_00000155864229089407148460000017669495606026708353_);" d="M144.5,112.3c0.1,0.1,0.3,0.1,0.4,0.2
			l-0.3-0.4L144.5,112.3z"/>
		
			<linearGradient id="SVGID_00000011728858637959821250000007865079212284091030_" gradientUnits="userSpaceOnUse" x1="144.6267" y1="817.8727" x2="214.8121" y2="817.8727" gradientTransform="matrix(1 0 0 -1 0 923.3879)">
			<stop  offset="0" style="stop-color:#801B54"/>
			<stop  offset="1" style="stop-color:#661548"/>
		</linearGradient>
		<path style="fill:url(#SVGID_00000011728858637959821250000007865079212284091030_);" d="M173.6,139.5l41.2-38.6
			c-8.2-11.5-18.4-21.6-30.1-29.4l-40.1,40.6l0.3,0.4C157.2,118,167.4,127.6,173.6,139.5z"/>
		
			<linearGradient id="SVGID_00000163042937645679725920000009884484059791034753_" gradientUnits="userSpaceOnUse" x1="114.8288" y1="870.7894" x2="145.3461" y2="841.445" gradientTransform="matrix(1 0 0 -1 0 923.3879)">
			<stop  offset="1.020000e-02" style="stop-color:#175179"/>
			<stop  offset="1" style="stop-color:#101C41"/>
		</linearGradient>
		<path style="fill:url(#SVGID_00000163042937645679725920000009884484059791034753_);" d="M146.1,54.8c-8.2-1.9-16.6-2.8-25.3-2.8
			c-9.7,0-19.2,1.2-28.3,3.5l26.8,29.1L146.1,54.8z"/>
		
			<linearGradient id="SVGID_00000173843831790325626690000009740829742942384061_" gradientUnits="userSpaceOnUse" x1="62.8278" y1="838.3945" x2="119.2358" y2="838.3945" gradientTransform="matrix(1 0 0 -1 0 923.3879)">
			<stop  offset="0.2944" style="stop-color:#1D5566"/>
			<stop  offset="0.7614" style="stop-color:#2164A5"/>
		</linearGradient>
		<path style="fill:url(#SVGID_00000173843831790325626690000009740829742942384061_);" d="M119.2,84.6L92.5,55.6
			C81.9,58.2,72,62.3,62.8,67.8v18.7l29.6,28L119.2,84.6z"/>
		
			<linearGradient id="SVGID_00000011730862705240879770000001510829270110420103_" gradientUnits="userSpaceOnUse" x1="92.4024" y1="823.7876" x2="144.574" y2="823.7876" gradientTransform="matrix(1 0 0 -1 0 923.3879)">
			<stop  offset="0" style="stop-color:#326497"/>
			<stop  offset="1" style="stop-color:#294B99"/>
		</linearGradient>
		<path style="fill:url(#SVGID_00000011730862705240879770000001510829270110420103_);" d="M92.4,114.4l0.3,0.3
			c8.2-4.7,17.7-7.3,28.1-7.3c8.4,0,16.4,1.8,23.7,4.9l0.1-0.1l-25.3-27.6L92.4,114.4z"/>
		
			<linearGradient id="SVGID_00000171707339701587328030000009509638908395180162_" gradientUnits="userSpaceOnUse" x1="151.3718" y1="875.8159" x2="152.5461" y2="813.6062" gradientTransform="matrix(1 0 0 -1 0 923.3879)">
			<stop  offset="1.020000e-02" style="stop-color:#175179"/>
			<stop  offset="1" style="stop-color:#18446C"/>
		</linearGradient>
		<path style="fill:url(#SVGID_00000171707339701587328030000009509638908395180162_);" d="M146.1,54.8l-26.8,29.8l25.3,27.6
			l40.1-40.6C173.1,63.7,160.1,58,146.1,54.8z"/>
		<path class="st9" d="M214.8,100.9l-41.2,38.6c1.8,3.5,3.3,7.1,4.4,11h56.5C231.9,132.2,225,115.4,214.8,100.9z"/>
		
			<linearGradient id="SVGID_00000138556355733076447260000007831502268688873893_" gradientUnits="userSpaceOnUse" x1="60.8665" y1="806.9445" x2="82.4177" y2="806.9445" gradientTransform="matrix(1 0 0 -1 0 923.3879)">
			<stop  offset="0" style="stop-color:#214B37"/>
			<stop  offset="1" style="stop-color:#2F6444"/>
		</linearGradient>
		<path style="fill:url(#SVGID_00000138556355733076447260000007831502268688873893_);" d="M62.5,86v56.8l4.2,4.1
			c4.4-13.3,13.2-24.5,24.8-31.4l0.9-1L62.5,86z"/>
		<g>
			
				<linearGradient id="SVGID_00000029739774623485223000000000195051470485874620_" gradientUnits="userSpaceOnUse" x1="16.5481" y1="1004.6753" x2="31.5323" y2="887.2991" gradientTransform="matrix(1 0 0 -1 0 923.3879)">
				<stop  offset="0" style="stop-color:#90C34D"/>
				<stop  offset="1" style="stop-color:#65BC53"/>
			</linearGradient>
			<path style="fill:url(#SVGID_00000029739774623485223000000000195051470485874620_);" d="M62.7,69.2L62.1,56
				C61.5,43,54,32,44.1,23.1S13.1-0.6,0,0c0,0,1.2,11.7,2.5,29.3l60.2,57.1V67.7C62,68.2,63.5,68.7,62.7,69.2z"/>
			
				<linearGradient id="SVGID_00000068635654125996451230000006683594653353703087_" gradientUnits="userSpaceOnUse" x1="2.5247" y1="837.3486" x2="62.395" y2="837.3486" gradientTransform="matrix(1 0 0 -1 0 923.3879)">
				<stop  offset="0" style="stop-color:#90C34D"/>
				<stop  offset="1" style="stop-color:#65BC53"/>
			</linearGradient>
			<path style="fill:url(#SVGID_00000068635654125996451230000006683594653353703087_);" d="M2.5,29.3c1.3,16.2,2.7,37.2,3.7,58.9
				l56.2,54.5V86L2.5,29.3z"/>
		</g>
		
			<linearGradient id="SVGID_00000137815498472465061750000007640642142745662617_" gradientUnits="userSpaceOnUse" x1="91.4661" y1="808.4954" x2="92.683" y2="808.4954" gradientTransform="matrix(1 0 0 -1 0 923.3879)">
			<stop  offset="0" style="stop-color:#326497"/>
			<stop  offset="1" style="stop-color:#294B99"/>
		</linearGradient>
		<path style="fill:url(#SVGID_00000137815498472465061750000007640642142745662617_);" d="M91.5,115.4c0.4-0.2,0.8-0.5,1.2-0.8
			l-0.3-0.3L91.5,115.4z"/>
		<path class="st14" d="M6.9,147.3c-0.1,1.7-0.1,3.5-0.2,5.1c-0.4,3.5,0.2,28.7,3.5,44.9l24.4-22.1L6.9,147.3z"/>
		
			<linearGradient id="SVGID_00000026857269176986151070000011642822604274628756_" gradientUnits="userSpaceOnUse" x1="10.1708" y1="720.8538" x2="58.4277" y2="720.8538" gradientTransform="matrix(1 0 0 -1 0 923.3879)">
			<stop  offset="0" style="stop-color:#C6D92C"/>
			<stop  offset="1" style="stop-color:#DEC623"/>
		</linearGradient>
		<path style="fill:url(#SVGID_00000026857269176986151070000011642822604274628756_);" d="M10.2,197.4c0.7,3.5,1.5,6.5,2.5,8.9
			c3,8.4,7,16.2,11.8,23.6l34-30.4l-23.9-24.2L10.2,197.4z"/>
		
			<linearGradient id="SVGID_00000071518857454729814240000010947465730774399409_" gradientUnits="userSpaceOnUse" x1="24.4531" y1="692.5777" x2="88.0023" y2="692.5777" gradientTransform="matrix(1 0 0 -1 0 923.3879)">
			<stop  offset="0" style="stop-color:#E5C31F"/>
			<stop  offset="1" style="stop-color:#E1AD24"/>
		</linearGradient>
		<path style="fill:url(#SVGID_00000071518857454729814240000010947465730774399409_);" d="M58.5,199.4l-34,30.4
			c8.4,12.8,19.3,23.8,32,32.4l31.6-33L58.5,199.4z"/>
		<path class="st17" d="M83.3,275.6c11.8,4,24.3,6.3,37.4,6.3c6.1,0,12.2-0.5,18.1-1.4l-28.9-29.2L83.3,275.6z"/>
		
			<linearGradient id="SVGID_00000049921615051123719030000014470216799356296356_" gradientUnits="userSpaceOnUse" x1="56.408" y1="670.9739" x2="109.8586" y2="670.9739" gradientTransform="matrix(1 0 0 -1 0 923.3879)">
			<stop  offset="0" style="stop-color:#F39D1E"/>
			<stop  offset="1" style="stop-color:#E87524"/>
		</linearGradient>
		<path style="fill:url(#SVGID_00000049921615051123719030000014470216799356296356_);" d="M88,229.2l-31.6,33
			c8.2,5.6,17.2,10.1,26.8,13.4l26.6-24.4L88,229.2z"/>
		<path class="st19" d="M234.4,184.5h-56.6c-1.4,4.5-3.2,8.7-5.6,12.7l40.6,38.7C223.8,221.1,231.5,203.6,234.4,184.5z"/>
		
			<linearGradient id="SVGID_00000119080397149344506640000001185971851237245614_" gradientUnits="userSpaceOnUse" x1="141.8856" y1="692.2531" x2="212.7923" y2="692.2531" gradientTransform="matrix(1 0 0 -1 0 923.3879)">
			<stop  offset="1.520000e-02" style="stop-color:#CE1F3E"/>
			<stop  offset="1" style="stop-color:#AE2036"/>
		</linearGradient>
		<path style="fill:url(#SVGID_00000119080397149344506640000001185971851237245614_);" d="M172.2,197.2
			c-6.9,11.6-17.5,20.7-30.3,25.5l38.9,42.3c12.4-7.6,23.3-17.5,32-29.1L172.2,197.2z"/>
		<path class="st21" d="M95.9,221c-12.6-6.1-22.4-16.9-27.8-30.2l-9.5,8.6L88,229.3L95.9,221z"/>
		
			<linearGradient id="SVGID_00000145035436103865165700000013031107013358813361_" gradientUnits="userSpaceOnUse" x1="88.0023" y1="687.2037" x2="140.4429" y2="687.2037" gradientTransform="matrix(1 0 0 -1 0 923.3879)">
			<stop  offset="1.520000e-02" style="stop-color:#EB8037"/>
			<stop  offset="1" style="stop-color:#E55F25"/>
		</linearGradient>
		<path style="fill:url(#SVGID_00000145035436103865165700000013031107013358813361_);" d="M120.8,226.7c-9.1,0-17.5-2-24.9-5.6
			l-7.9,8.2l21.9,22.1l30.6-28.1C134.3,225.4,127.7,226.7,120.8,226.7z"/>
		
			<linearGradient id="SVGID_00000004547558368972561400000013315387700486834351_" gradientUnits="userSpaceOnUse" x1="109.9307" y1="671.7673" x2="180.7653" y2="671.7673" gradientTransform="matrix(1 0 0 -1 0 923.3879)">
			<stop  offset="1.520000e-02" style="stop-color:#E44525"/>
			<stop  offset="1" style="stop-color:#EB4124"/>
		</linearGradient>
		<path style="fill:url(#SVGID_00000004547558368972561400000013315387700486834351_);" d="M180.8,265l-38.9-42.3
			c-0.4,0.1-0.9,0.3-1.4,0.4l-30.6,28.1l28.9,29.2C154,278.1,168.1,272.8,180.8,265z"/>
		
			<linearGradient id="SVGID_00000029039990101144296000000015280300013984833469_" gradientUnits="userSpaceOnUse" x1="77.0852" y1="749.0892" x2="16.0498" y2="747.9156" gradientTransform="matrix(1 0 0 -1 0 923.3879)">
			<stop  offset="0" style="stop-color:#B1D23F"/>
			<stop  offset="1" style="stop-color:#63BB46"/>
		</linearGradient>
		<path style="fill:url(#SVGID_00000029039990101144296000000015280300013984833469_);" d="M62.4,149.8l-27.8,25.4l23.9,24.2
			l9.5-8.5c-1.2-2.8-2.1-5.8-2.8-8.8C61.6,171.7,62.3,160.4,62.4,149.8z"/>
		
			<linearGradient id="SVGID_00000049925548591745194370000010461529417935818394_" gradientUnits="userSpaceOnUse" x1="53.7394" y1="759.7735" x2="0.92" y2="810.2449" gradientTransform="matrix(1 0 0 -1 0 923.3879)">
			<stop  offset="0" style="stop-color:#B1D23F"/>
			<stop  offset="1" style="stop-color:#63BB46"/>
		</linearGradient>
		<path style="fill:url(#SVGID_00000049925548591745194370000010461529417935818394_);" d="M6.2,88.2c0.9,20.4,1.3,41.3,0.7,59.1
			l27.6,27.9l27.8-25.4v-7.1L6.2,88.2z"/>
	</g>
	<g>
		<path class="st0" d="M310.3,202.5l-2.8,2.7c-2-2-4.3-3.5-6.7-4.5s-4.8-1.6-7.1-1.6c-2.9,0-5.6,0.7-8.2,2.1
			c-2.6,1.4-4.6,3.3-6.1,5.8c-1.4,2.5-2.2,5-2.2,7.6c0,2.7,0.7,5.4,2.2,7.9c1.4,2.5,3.5,4.5,6.1,5.8c2.6,1.4,5.5,2.2,8.6,2.2
			c3.8,0,7-1.1,9.6-3.2c2.6-2.1,4.2-4.9,4.6-8.3h-11.7v-3.5h15.8c0,5.7-1.7,10.2-5,13.5c-3.3,3.3-7.8,5-13.3,5
			c-6.8,0-12.1-2.3-16.1-6.9c-3-3.5-4.5-7.6-4.5-12.3c0-3.5,0.9-6.7,2.6-9.7c1.7-3,4.1-5.3,7.2-7c3-1.7,6.5-2.5,10.3-2.5
			c3.1,0,6.1,0.6,8.8,1.7C305.1,198.2,307.7,200,310.3,202.5z"/>
		<path class="st0" d="M351.5,205.9V233H348v-4.7c-1.4,1.8-3.1,3.1-4.9,4c-1.8,0.9-3.8,1.4-6,1.4c-3.8,0-7.1-1.4-9.8-4.2
			c-2.7-2.8-4-6.2-4-10.2c0-3.9,1.4-7.2,4.1-10c2.7-2.7,6.1-4.2,9.9-4.2c2.2,0,4.3,0.5,6.1,1.4c1.8,0.9,3.4,2.4,4.8,4.3v-5H351.5z
			 M337.6,208.6c-1.9,0-3.8,0.5-5.4,1.4c-1.7,0.9-3,2.3-3.9,4c-0.9,1.7-1.4,3.5-1.4,5.5c0,1.9,0.5,3.8,1.4,5.5c1,1.7,2.3,3.1,4,4
			c1.7,0.9,3.4,1.4,5.3,1.4c1.9,0,3.8-0.5,5.4-1.4c1.7-0.9,3-2.2,4-3.9c0.9-1.7,1.4-3.5,1.4-5.6c0-3.1-1-5.8-3.1-7.9
			C343.1,209.6,340.6,208.6,337.6,208.6z"/>
		<path class="st0" d="M368,195.9h3.5V206h5.6v3h-5.6v24.1H368V209h-4.8v-3.1h4.8V195.9z"/>
		<path class="st0" d="M410.7,224.1l3,1.5c-0.9,1.9-2.1,3.4-3.3,4.6c-1.3,1.2-2.7,2-4.3,2.7c-1.6,0.6-3.4,0.9-5.3,0.9
			c-4.4,0-7.9-1.4-10.4-4.3c-2.5-2.9-3.8-6.2-3.8-9.8c0-3.5,1.1-6.5,3.2-9.2c2.7-3.4,6.3-5.1,10.7-5.1c4.6,0,8.3,1.7,11.1,5.3
			c1.9,2.5,3,5.6,3,9.3h-24.5c0.1,3.2,1.1,5.7,3,7.7c1.9,2,4.3,3,7.2,3c1.4,0,2.7-0.2,4-0.7s2.5-1.1,3.3-1.9
			C408.6,227.1,409.6,225.8,410.7,224.1z M410.7,216.7c-0.4-1.9-1.2-3.3-2-4.5c-0.9-1.1-2.1-2-3.5-2.7c-1.4-0.6-3-1-4.6-1
			c-2.7,0-5,0.9-6.9,2.6c-1.4,1.2-2.5,3.1-3.2,5.6L410.7,216.7L410.7,216.7z"/>
		<path class="st0" d="M423,205.9h3.6l8.3,19.7l8.7-19.7h0.6l8.7,19.7l8.4-19.7h3.6L453.2,233h-0.6l-8.7-19.4l-8.7,19.4h-0.6
			L423,205.9z"/>
		<path class="st0" d="M501.8,205.9V233h-3.5v-4.7c-1.4,1.8-3.1,3.1-4.9,4c-1.8,0.9-3.8,1.4-6,1.4c-3.8,0-7.1-1.4-9.8-4.2
			c-2.7-2.8-4-6.2-4-10.2c0-3.9,1.4-7.2,4.1-10c2.7-2.7,6.1-4.2,9.9-4.2c2.2,0,4.3,0.5,6.1,1.4c1.8,0.9,3.4,2.4,4.8,4.3v-5H501.8z
			 M487.8,208.6c-1.9,0-3.8,0.5-5.4,1.4c-1.7,0.9-3,2.3-3.9,4c-0.9,1.7-1.4,3.5-1.4,5.5c0,1.9,0.5,3.8,1.4,5.5c1,1.7,2.3,3.1,4,4
			c1.7,0.9,3.4,1.4,5.3,1.4c1.9,0,3.8-0.5,5.4-1.4c1.7-0.9,3-2.2,4-3.9c0.9-1.7,1.4-3.5,1.4-5.6c0-3.1-1-5.8-3.1-7.9
			C493.3,209.6,490.8,208.6,487.8,208.6z"/>
		<path class="st0" d="M512.3,205.9h3.7l9.3,20.8l9-20.8h3.7l-16.2,37h-3.7l5.2-12L512.3,205.9z"/>
		<path class="st0" d="M570.9,195.9h3.5V206h5.6v3h-5.6v24.1h-3.5V209h-4.8v-3.1h4.8V195.9z"/>
		<path class="st0" d="M603.7,205.2c4.2,0,7.6,1.5,10.4,4.5c2.5,2.7,3.8,6.1,3.8,9.8c0,3.8-1.3,7.1-4,10c-2.7,2.8-6.1,4.3-10.2,4.3
			c-4.2,0-7.6-1.4-10.2-4.3c-2.7-2.8-4-6.1-4-10c0-3.8,1.2-7,3.8-9.7C596,206.8,599.5,205.2,603.7,205.2z M603.6,208.6
			c-2.9,0-5.4,1.1-7.5,3.2c-2.1,2.2-3.1,4.8-3.1,7.8c0,1.9,0.5,3.8,1.4,5.5s2.2,3,3.8,3.9c1.6,0.9,3.4,1.4,5.3,1.4s3.7-0.4,5.3-1.4
			c1.6-0.9,2.9-2.2,3.8-3.9c0.9-1.7,1.4-3.5,1.4-5.5c0-3-1.1-5.6-3.2-7.8C609,209.7,606.5,208.6,603.6,208.6z"/>
		<path class="st0" d="M650.2,233v-36.6h7.6c5.5,0,9.4,0.4,11.9,1.3c3.5,1.2,6.3,3.4,8.4,6.5c2,3.1,3,6.7,3,11
			c0,3.7-0.8,6.9-2.4,9.7c-1.6,2.8-3.7,4.8-6.2,6.2c-2.5,1.3-6.1,2-10.7,2H650.2z M653.7,229.5h4.3c5,0,8.6-0.3,10.5-0.9
			c2.7-0.9,4.9-2.5,6.5-4.8c1.6-2.3,2.4-5.2,2.4-8.6c0-3.5-0.9-6.6-2.6-9.1s-4.1-4.3-7.1-5.1c-2.3-0.7-6.1-1.1-11.3-1.1h-2.6V229.5z
			"/>
		<path class="st0" d="M694.4,194.8c0.8,0,1.4,0.3,2,0.9c0.6,0.6,0.9,1.2,0.9,2c0,0.8-0.3,1.4-0.9,2c-0.6,0.6-1.2,0.9-2,0.9
			s-1.4-0.3-2-0.9c-0.6-0.6-0.9-1.2-0.9-2c0-0.8,0.3-1.5,0.9-2C693,195,693.6,194.8,694.4,194.8z M692.7,205.9h3.5V233h-3.5V205.9z"
			/>
		<path class="st0" d="M732.4,205.9h3.5v21.6c0,3.8-0.4,6.6-1,8.4c-0.9,2.5-2.5,4.4-4.8,5.8c-2.2,1.4-5,2-8.2,2
			c-2.3,0-4.4-0.4-6.3-1c-1.9-0.6-3.4-1.5-4.5-2.7c-1.2-1.1-2.2-2.7-3.2-4.8h3.8c1,1.8,2.4,3.1,4,4c1.7,0.9,3.7,1.3,6.1,1.3
			s4.4-0.4,6.1-1.3c1.7-0.9,2.8-2,3.5-3.3c0.7-1.4,1.1-3.5,1.1-6.5V228c-1.3,1.7-2.9,3-4.8,3.8s-3.9,1.3-6.1,1.3
			c-2.5,0-4.8-0.6-7.1-1.9c-2.2-1.2-3.9-2.9-5.1-5c-1.2-2.1-1.8-4.4-1.8-6.9c0-2.5,0.6-4.8,1.9-7s3-3.9,5.2-5.1
			c2.2-1.3,4.5-1.9,7-1.9c2,0,3.9,0.4,5.7,1.2c1.7,0.9,3.5,2.2,5,4.2L732.4,205.9L732.4,205.9z M722.1,208.6c-1.9,0-3.8,0.5-5.5,1.4
			c-1.7,0.9-3,2.3-4,4c-0.9,1.7-1.4,3.5-1.4,5.5c0,3,1,5.4,3,7.4c2,1.9,4.5,2.9,7.7,2.9s5.8-0.9,7.7-2.9c1.9-1.9,3-4.5,3-7.6
			c0-2-0.4-3.9-1.4-5.5c-0.9-1.6-2.2-2.9-3.8-3.8C725.8,209.1,724,208.6,722.1,208.6z"/>
		<path class="st0" d="M750.2,194.8c0.8,0,1.4,0.3,2,0.9c0.6,0.6,0.9,1.2,0.9,2c0,0.8-0.3,1.4-0.9,2c-0.6,0.6-1.2,0.9-2,0.9
			s-1.4-0.3-2-0.9c-0.6-0.6-0.9-1.2-0.9-2c0-0.8,0.3-1.5,0.9-2C748.7,195,749.4,194.8,750.2,194.8z M748.5,205.9h3.5V233h-3.5V205.9
			z"/>
		<path class="st0" d="M767.9,195.9h3.5V206h5.6v3h-5.6v24.1h-3.5V209h-4.8v-3.1h4.8V195.9z"/>
		<path class="st0" d="M814.7,205.9V233h-3.5v-4.7c-1.4,1.8-3.1,3.1-4.9,4c-1.8,0.9-3.8,1.4-6,1.4c-3.8,0-7.1-1.4-9.8-4.2
			c-2.7-2.8-4-6.2-4-10.2c0-3.9,1.4-7.2,4.1-10c2.7-2.7,6.1-4.2,9.9-4.2c2.2,0,4.3,0.5,6.1,1.4c1.8,0.9,3.4,2.4,4.8,4.3v-5H814.7z
			 M800.8,208.6c-1.9,0-3.8,0.5-5.4,1.4c-1.7,0.9-3,2.3-3.9,4c-0.9,1.7-1.4,3.5-1.4,5.5c0,1.9,0.5,3.8,1.4,5.5c1,1.7,2.3,3.1,4,4
			c1.7,0.9,3.4,1.4,5.3,1.4c1.9,0,3.8-0.5,5.4-1.4c1.7-0.9,3-2.2,4-3.9c0.9-1.7,1.4-3.5,1.4-5.6c0-3.1-1-5.8-3.1-7.9
			C806.4,209.6,803.9,208.6,800.8,208.6z"/>
		<path class="st0" d="M827.7,195.4h3.5V233h-3.5V195.4z"/>
		<path class="st0" d="M864.4,196.4h7.2c2.9,0,5.1,0.4,6.7,1c1.6,0.7,2.8,1.7,3.7,3.2c0.9,1.4,1.4,3,1.4,4.8c0,1.7-0.4,3.1-1.2,4.5
			c-0.8,1.4-1.9,2.5-3.5,3.2c1.9,0.6,3.4,1.4,4.4,2.3c1,0.9,1.8,1.9,2.4,3.2c0.6,1.2,0.9,2.6,0.9,4c0,3-1.1,5.4-3.2,7.4
			c-2.2,2-5,3-8.7,3h-10.1L864.4,196.4L864.4,196.4z M868,200v11.8h2.1c2.5,0,4.4-0.2,5.6-0.7s2.2-1.2,2.8-2.2
			c0.7-1,1.1-2.2,1.1-3.4c0-1.7-0.6-3-1.7-4c-1.2-0.9-3-1.4-5.6-1.4H868z M868,215.4v14.1h4.5c2.7,0,4.6-0.3,5.9-0.8
			c1.2-0.5,2.2-1.4,3-2.5c0.7-1.1,1.2-2.3,1.2-3.6c0-1.7-0.5-3-1.6-4.3c-1.1-1.2-2.5-2-4.4-2.5c-1.2-0.3-3.4-0.4-6.5-0.4H868z"/>
		<path class="st0" d="M897.4,205.9h3.5v4c1.1-1.6,2.2-2.7,3.4-3.5c1.2-0.8,2.4-1.2,3.7-1.2c0.9,0,2,0.3,3.1,0.9l-1.8,3
			c-0.7-0.3-1.4-0.5-1.9-0.5c-1.2,0-2.3,0.5-3.4,1.4c-1.1,0.9-1.9,2.5-2.5,4.5c-0.4,1.5-0.6,4.7-0.6,9.4v9.2h-3.5
			C897.4,233,897.4,205.9,897.4,205.9z"/>
		<path class="st0" d="M946.7,205.9V233h-3.5v-4.7c-1.4,1.8-3.1,3.1-4.9,4c-1.8,0.9-3.8,1.4-6,1.4c-3.8,0-7.1-1.4-9.8-4.2
			c-2.7-2.8-4-6.2-4-10.2c0-3.9,1.4-7.2,4.1-10c2.7-2.7,6.1-4.2,9.9-4.2c2.2,0,4.3,0.5,6.1,1.4c1.8,0.9,3.4,2.4,4.8,4.3v-5H946.7z
			 M932.8,208.6c-1.9,0-3.8,0.5-5.4,1.4c-1.7,0.9-3,2.3-3.9,4c-0.9,1.7-1.4,3.5-1.4,5.5c0,1.9,0.5,3.8,1.4,5.5c1,1.7,2.3,3.1,4,4
			c1.7,0.9,3.4,1.4,5.3,1.4c1.9,0,3.8-0.5,5.4-1.4c1.7-0.9,3-2.2,4-3.9c0.9-1.7,1.4-3.5,1.4-5.6c0-3.1-1-5.8-3.1-7.9
			C938.3,209.6,935.8,208.6,932.8,208.6z"/>
		<path class="st0" d="M960.2,205.9h3.5v4.8c1.4-1.9,3-3.2,4.6-4.2c1.7-0.9,3.5-1.4,5.6-1.4s3.8,0.5,5.4,1.5c1.6,1,2.7,2.5,3.5,4.2
			c0.7,1.7,1.2,4.5,1.2,8.2v13.9h-3.5V220c0-3.1-0.1-5.2-0.4-6.3c-0.4-1.8-1.2-3.2-2.3-4c-1.2-0.9-2.7-1.4-4.5-1.4
			c-2.1,0-4,0.7-5.7,2.1c-1.7,1.4-2.7,3.1-3.3,5.2c-0.4,1.4-0.5,3.8-0.5,7.4v10h-3.5L960.2,205.9L960.2,205.9z"/>
		<path class="st0" d="M1024,195.4V233h-3.5v-4.7c-1.4,1.8-3.1,3.1-4.9,4c-1.8,0.9-3.8,1.4-6,1.4c-3.8,0-7.1-1.4-9.8-4.2
			c-2.7-2.8-4-6.2-4-10.2c0-3.9,1.4-7.2,4.1-10c2.7-2.7,6.1-4.2,9.9-4.2c2.2,0,4.3,0.5,6.1,1.4c1.8,0.9,3.4,2.4,4.8,4.3v-15.4
			C1020.6,195.4,1024,195.4,1024,195.4z M1010,208.6c-1.9,0-3.8,0.5-5.4,1.4c-1.7,0.9-3,2.3-3.9,4c-0.9,1.7-1.4,3.5-1.4,5.5
			c0,1.9,0.5,3.8,1.4,5.5c1,1.7,2.3,3.1,4,4c1.7,0.9,3.4,1.4,5.3,1.4c1.9,0,3.8-0.5,5.4-1.4c1.7-0.9,3-2.2,4-3.9s1.4-3.5,1.4-5.6
			c0-3.1-1-5.8-3.1-7.9C1015.6,209.6,1013,208.6,1010,208.6z"/>
	</g>
</g>
</svg>
