<svg width="83" height="86" viewBox="0 0 83 86" fill="none" xmlns="http://www.w3.org/2000/svg">
<g clip-path="url(#clip0_613_235)">
<path d="M41.5012 11.0389C41.8332 11.0383 42.1514 10.905 42.3859 10.6681C42.6204 10.4313 42.7522 10.1104 42.7522 9.77577V1.26535C42.7593 1.09515 42.7322 0.925256 42.6725 0.76589C42.6127 0.606525 42.5217 0.460981 42.4047 0.338014C42.2877 0.215047 42.1473 0.117198 41.9918 0.050354C41.8363 -0.0164904 41.6691 -0.0509491 41.5001 -0.0509491C41.331 -0.0509491 41.1638 -0.0164904 41.0083 0.050354C40.8528 0.117198 40.7124 0.215047 40.5954 0.338014C40.4785 0.460981 40.3874 0.606525 40.3277 0.76589C40.2679 0.925256 40.2408 1.09515 40.2479 1.26535V9.77577C40.2479 10.1108 40.38 10.4321 40.615 10.6689C40.85 10.9058 41.1688 11.0389 41.5012 11.0389Z" fill="white"/>
<path d="M18.1274 20.0555C18.3632 20.293 18.6829 20.4265 19.0163 20.4265C19.3496 20.4265 19.6693 20.293 19.9051 20.0555C20.1408 19.8179 20.2732 19.4956 20.2732 19.1596C20.2732 18.8236 20.1408 18.5014 19.9051 18.2638L13.9278 12.2505C13.692 12.0129 13.3723 11.8794 13.039 11.8794C12.7056 11.8794 12.3859 12.0129 12.1501 12.2505C11.9144 12.4881 11.782 12.8103 11.782 13.1463C11.782 13.4823 11.9144 13.8046 12.1501 14.0422L18.1274 20.0555Z" fill="white"/>
<path d="M9.69922 40.5656H1.25545C1.08659 40.5584 0.918023 40.5857 0.759905 40.6459C0.601788 40.7061 0.457384 40.7979 0.33538 40.9158C0.213376 41.0337 0.116294 41.1752 0.0499726 41.3319C-0.0163483 41.4886 -0.0505371 41.6572 -0.0505371 41.8276C-0.0505371 41.9979 -0.0163483 42.1665 0.0499726 42.3232C0.116294 42.4799 0.213376 42.6214 0.33538 42.7393C0.457384 42.8572 0.601788 42.949 0.759905 43.0092C0.918023 43.0694 1.08659 43.0967 1.25545 43.0896H9.69922C9.86809 43.0967 10.0367 43.0694 10.1948 43.0092C10.3529 42.949 10.4973 42.8572 10.6193 42.7393C10.7413 42.6214 10.8384 42.4799 10.9047 42.3232C10.971 42.1665 11.0052 41.9979 11.0052 41.8276C11.0052 41.6572 10.971 41.4886 10.9047 41.3319C10.8384 41.1752 10.7413 41.0337 10.6193 40.9158C10.4973 40.7979 10.3529 40.7061 10.1948 40.6459C10.0367 40.5857 9.86809 40.5584 9.69922 40.5656Z" fill="white"/>
<path d="M18.1274 63.6042L12.1545 69.6197C12.0378 69.7373 11.9452 69.877 11.8821 70.0307C11.8189 70.1844 11.7864 70.3491 11.7864 70.5155C11.7864 70.6819 11.8189 70.8466 11.8821 71.0003C11.9452 71.154 12.0378 71.2937 12.1545 71.4113C12.2713 71.529 12.4098 71.6223 12.5623 71.686C12.7148 71.7496 12.8783 71.7824 13.0434 71.7824C13.2084 71.7824 13.3719 71.7496 13.5244 71.686C13.6769 71.6223 13.8155 71.529 13.9322 71.4113L19.8984 65.3958C20.1341 65.1582 20.2665 64.836 20.2665 64.5C20.2665 64.164 20.1341 63.8417 19.8984 63.6042C19.6626 63.3666 19.3429 63.2331 19.0095 63.2331C18.6762 63.2331 18.3565 63.3666 18.1207 63.6042H18.1274Z" fill="white"/>
<path d="M64.8836 63.6042C64.6479 63.3666 64.3281 63.2331 63.9948 63.2331C63.6614 63.2331 63.3417 63.3666 63.106 63.6042C62.8702 63.8417 62.7378 64.164 62.7378 64.5C62.7378 64.836 62.8702 65.1582 63.106 65.3958L69.0788 71.4158C69.1955 71.5335 69.3341 71.6268 69.4866 71.6905C69.6391 71.7541 69.8026 71.7869 69.9676 71.7869C70.1327 71.7869 70.2961 71.7541 70.4486 71.6905C70.6012 71.6268 70.7397 71.5335 70.8564 71.4158C70.9732 71.2982 71.0658 71.1585 71.1289 71.0048C71.1921 70.8511 71.2246 70.6864 71.2246 70.52C71.2246 70.3536 71.1921 70.1889 71.1289 70.0352C71.0658 69.8815 70.9732 69.7418 70.8564 69.6242L64.8836 63.6042Z" fill="white"/>
<path d="M81.749 40.5656H73.3052C72.9823 40.5793 72.677 40.7182 72.4533 40.9534C72.2296 41.1886 72.1047 41.5018 72.1047 41.8276C72.1047 42.1534 72.2296 42.4666 72.4533 42.7017C72.677 42.9369 72.9823 43.0759 73.3052 43.0896H81.749C82.0719 43.0759 82.3771 42.9369 82.6008 42.7017C82.8246 42.4666 82.9494 42.1534 82.9494 41.8276C82.9494 41.5018 82.8246 41.1886 82.6008 40.9534C82.3771 40.7182 82.0719 40.5793 81.749 40.5656Z" fill="white"/>
<path d="M69.0744 12.2505L63.106 18.2705C62.8702 18.5081 62.7378 18.8303 62.7378 19.1663C62.7378 19.5023 62.8702 19.8246 63.106 20.0622C63.3417 20.2998 63.6614 20.4332 63.9948 20.4332C64.3281 20.4332 64.6479 20.2998 64.8836 20.0622L70.8564 14.0444C70.9732 13.9268 71.0658 13.7871 71.1289 13.6334C71.1921 13.4797 71.2246 13.315 71.2246 13.1486C71.2246 12.9822 71.1921 12.8175 71.1289 12.6638C71.0658 12.5101 70.9732 12.3704 70.8564 12.2527C70.7397 12.1351 70.6012 12.0418 70.4486 11.9781C70.2961 11.9144 70.1327 11.8817 69.9676 11.8817C69.8026 11.8817 69.6391 11.9144 69.4866 11.9781C69.3341 12.0418 69.1955 12.1351 69.0788 12.2527L69.0744 12.2505Z" fill="white"/>
<path d="M66.2479 39.2756C66.2479 25.323 55.1377 13.9683 41.501 13.9683C36.734 13.9617 32.0696 15.3632 28.0843 17.9995C24.1837 20.5771 21.0752 24.2019 19.1095 28.4651C19.0365 28.6158 18.9941 28.7797 18.9847 28.9471C18.9752 29.1145 18.9989 29.2821 19.0545 29.4402C19.11 29.5983 19.1962 29.7437 19.308 29.8678C19.4198 29.992 19.5551 30.0924 19.7058 30.1634C19.8566 30.2343 20.0199 30.2742 20.1861 30.2809C20.3524 30.2876 20.5183 30.2608 20.6741 30.2021C20.83 30.1435 20.9727 30.0542 21.094 29.9393C21.2152 29.8245 21.3126 29.6865 21.3804 29.5334C25.0445 21.6164 32.935 16.499 41.4921 16.499C53.7556 16.499 63.7348 26.716 63.7348 39.2756C63.7545 45.1916 61.4962 50.8847 57.4353 55.1564C55.0955 57.62 53.1023 59.9738 52.5912 63.2727H30.7285C30.0819 59.8484 27.7643 57.4498 25.6823 55.2886C21.5419 51.0054 19.2352 45.2554 19.2583 39.2756C19.2584 37.7888 19.399 36.3055 19.6783 34.8457C19.7151 34.6807 19.7186 34.51 19.6887 34.3437C19.6587 34.1773 19.596 34.0187 19.5042 33.8773C19.4123 33.7358 19.2932 33.6144 19.154 33.5201C19.0147 33.4259 18.8581 33.3608 18.6934 33.3288C18.5287 33.2967 18.3593 33.2982 18.1952 33.3333C18.0312 33.3685 17.8757 33.4364 17.7382 33.5332C17.6007 33.6299 17.4838 33.7535 17.3945 33.8967C17.3053 34.0398 17.2454 34.1995 17.2185 34.3664C16.9082 35.9841 16.7519 37.6279 16.7519 39.2756C16.7282 45.9133 19.2902 52.2953 23.8869 57.0489C26.5289 59.7857 28.3998 61.976 28.3998 65.1719V65.2054L28.4709 72.6162C28.4717 73.7581 28.7639 74.8806 29.3197 75.8757C29.8754 76.8708 30.6758 77.705 31.644 78.2981V79.6866C31.6458 81.3609 32.3066 82.966 33.4814 84.1497C34.6562 85.3333 36.249 85.9988 37.9102 86H45.5918C47.2527 85.9988 48.8453 85.3333 50.0198 84.1495C51.1942 82.9658 51.8545 81.3606 51.8557 79.6866V78.2981C52.8245 77.7054 53.6255 76.8714 54.1816 75.8762C54.7378 74.8811 55.0303 73.7584 55.031 72.6162C55.031 72.6162 55.031 64.3634 55.0044 64.2805C55.2421 61.3534 57.0042 59.2728 59.2551 56.9011C63.7631 52.1606 66.27 45.8418 66.2479 39.2756ZM49.3604 79.6866C49.3592 80.691 48.9626 81.654 48.2577 82.364C47.5529 83.074 46.5972 83.4731 45.6007 83.4737H37.9102C36.9136 83.4731 35.958 83.074 35.2531 82.364C34.5482 81.654 34.1517 80.691 34.1505 79.6866V79.2006C34.4552 79.2439 34.7626 79.2656 35.0704 79.2656H48.4404C48.7482 79.2656 49.0556 79.2439 49.3604 79.2006V79.6866ZM48.4404 76.7415H35.0704C33.9852 76.7404 32.9448 76.3053 32.1775 75.532C31.4102 74.7586 30.9786 73.71 30.9774 72.6162V72.5311H43.6719C43.8408 72.5383 44.0094 72.511 44.1675 72.4508C44.3256 72.3906 44.47 72.2988 44.592 72.1809C44.714 72.063 44.8111 71.9215 44.8774 71.7648C44.9437 71.6081 44.9779 71.4395 44.9779 71.2691C44.9779 71.0988 44.9437 70.9302 44.8774 70.7735C44.8111 70.6168 44.714 70.4752 44.592 70.3574C44.47 70.2395 44.3256 70.1477 44.1675 70.0875C44.0094 70.0273 43.8408 69.9999 43.6719 70.0071H30.9774V65.7967H52.4846L52.5246 70.0071H49.5181C49.3493 69.9999 49.1807 70.0273 49.0226 70.0875C48.8645 70.1477 48.7201 70.2395 48.5981 70.3574C48.4761 70.4752 48.379 70.6168 48.3126 70.7735C48.2463 70.9302 48.2121 71.0988 48.2121 71.2691C48.2121 71.4395 48.2463 71.6081 48.3126 71.7648C48.379 71.9215 48.4761 72.063 48.5981 72.1809C48.7201 72.2988 48.8645 72.3906 49.0226 72.4508C49.1807 72.511 49.3493 72.5383 49.5181 72.5311H52.5246V72.6162C52.5234 73.7084 52.093 74.7557 51.3276 75.5288C50.5622 76.3019 49.5241 76.738 48.4404 76.7415Z" fill="white"/>
<path d="M49.645 39.4413C49.544 39.5723 49.4696 39.7221 49.4261 39.8821C49.3826 40.0421 49.3707 40.2092 49.3913 40.3738C49.4118 40.5384 49.4643 40.6973 49.5457 40.8414C49.6272 40.9856 49.7361 41.1122 49.8661 41.2139C49.996 41.3157 50.1447 41.3906 50.3034 41.4345C50.4621 41.4784 50.6279 41.4903 50.7912 41.4696C50.9545 41.4489 51.1122 41.396 51.2552 41.3139C51.3983 41.2318 51.5238 41.1221 51.6248 40.9911L54.1046 37.7728C54.4275 37.3538 54.6653 36.8749 54.8046 36.3633C54.9438 35.8517 54.9817 35.3175 54.9161 34.7911C54.8504 34.2647 54.6826 33.7566 54.4221 33.2956C54.1617 32.8346 53.8137 32.4298 53.398 32.1044C52.9823 31.779 52.5071 31.5393 51.9995 31.3989C51.4919 31.2586 50.9619 31.2204 50.4396 31.2865C49.9174 31.3527 49.4132 31.5218 48.9558 31.7844C48.4985 32.0469 48.0969 32.3976 47.774 32.8166L39.6835 43.318L35.0395 38.1401C34.3264 37.3451 33.3292 36.8681 32.2672 36.8141C31.2052 36.7601 30.1654 37.1336 29.3766 37.8523C28.5878 38.571 28.1145 39.5761 28.061 40.6465C28.0075 41.7169 28.378 42.7648 29.0911 43.5599L36.9415 52.3144C38.5214 54.1621 41.6456 54.0478 43.0833 52.0905L48.0406 45.6561C48.2445 45.3915 48.3358 45.0561 48.2943 44.7237C48.2529 44.3912 48.0821 44.089 47.8196 43.8835C47.557 43.678 47.2242 43.586 46.8944 43.6278C46.5646 43.6696 46.2647 43.8417 46.0608 44.1063L41.1079 50.5339C40.9722 50.7074 40.8008 50.8491 40.6054 50.9492C40.41 51.0492 40.1954 51.1052 39.9764 51.1133C39.7574 51.1214 39.5392 51.0814 39.3371 50.9961C39.135 50.9107 38.9537 50.7821 38.8058 50.619L30.9531 41.8668C30.7173 41.5653 30.6037 41.1849 30.6353 40.8024C30.6668 40.4198 30.8412 40.0635 31.1232 39.8055C31.4051 39.5474 31.7737 39.4068 32.1546 39.4119C32.5354 39.4171 32.9002 39.5676 33.1752 39.8332L38.8236 46.1354C38.9475 46.2705 39.099 46.377 39.2676 46.4475C39.4362 46.5181 39.618 46.5509 39.8004 46.5439C39.9828 46.5369 40.1616 46.4901 40.3244 46.4069C40.4872 46.3236 40.6301 46.2058 40.7435 46.0615L49.7516 34.3709C49.8722 34.2128 50.0226 34.0803 50.1941 33.9809C50.3657 33.8816 50.555 33.8174 50.7512 33.792C50.9475 33.7666 51.1467 33.7806 51.3376 33.833C51.5285 33.8855 51.7072 33.9754 51.8635 34.0977C52.0198 34.22 52.1506 34.3722 52.2483 34.5455C52.3461 34.7189 52.4089 34.91 52.4332 35.1079C52.4575 35.3058 52.4427 35.5066 52.3898 35.6987C52.3369 35.8908 52.2468 36.0705 52.1248 36.2275L49.645 39.4413Z" fill="white"/>
</g>
<defs>
<clipPath id="clip0_613_235">
<rect width="83" height="86" fill="white"/>
</clipPath>
</defs>
</svg>
