<svg width="131" height="137" viewBox="0 0 131 137" fill="none" xmlns="http://www.w3.org/2000/svg">
<g clip-path="url(#clip0_613_267)">
<path d="M96.4084 14.2969C68.0709 -2.05311 59.2541 -5.77164 30.9578 10.5453C2.66153 26.8623 0 36.4101 0 69.1018C0 101.793 4.73802 107.722 33.0343 124.063C61.3305 140.405 68.9114 141.716 97.2076 125.366C125.504 109.016 119.052 99.9466 128.058 68.4752C137.197 36.6245 124.672 30.6468 96.4084 14.2969Z" fill="#E0F6FF"/>
</g>
<g clip-path="url(#clip1_613_267)">
<path d="M105.236 94.125H100.703V71.9871C100.703 71.6748 100.578 71.3753 100.354 71.1545C100.13 70.9336 99.8268 70.8096 99.5104 70.8096C99.1941 70.8096 98.8907 70.9336 98.667 71.1545C98.4433 71.3753 98.3176 71.6748 98.3176 71.9871V78.4542H89.6181V63.1586C89.6173 62.6384 89.4076 62.1397 89.0349 61.7718C88.6623 61.4039 88.1571 61.1969 87.6301 61.1961H86.5327L93.9679 53.9015L101.401 61.1961H100.306C99.7785 61.1965 99.2731 61.4034 98.9004 61.7713C98.5276 62.1393 98.318 62.6383 98.3176 63.1586V66.7996C98.3176 67.1119 98.4433 67.4114 98.667 67.6323C98.8907 67.8531 99.1941 67.9772 99.5104 67.9772C99.8268 67.9772 100.13 67.8531 100.354 67.6323C100.578 67.4114 100.703 67.1119 100.703 66.7996V63.5512H103.499C104.204 63.5512 104.764 63.2183 104.997 62.6609C105.231 62.1036 105.07 61.4771 104.571 60.9857L95.3722 51.9594C94.998 51.5943 94.4931 51.3896 93.9671 51.3896C93.441 51.3896 92.9361 51.5943 92.562 51.9594L83.3678 60.981C82.8669 61.4724 82.7078 62.0973 82.94 62.6562C83.1722 63.2152 83.7352 63.5464 84.4398 63.5464H87.2325V94.125H84.4382V72.0091C84.4378 71.4887 84.2282 70.9898 83.8554 70.6218C83.4827 70.2538 82.9773 70.0469 82.4502 70.0465H72.9555C72.4284 70.0469 71.9229 70.2538 71.5502 70.6218C71.1775 70.9898 70.9679 71.4887 70.9675 72.0091V94.125H68.2065V79.0367C68.2065 78.5162 67.9971 78.017 67.6243 77.6489C67.2514 77.2809 66.7458 77.0741 66.2185 77.0741H56.7238C56.1975 77.0758 55.6934 77.2832 55.3217 77.6511C54.95 78.0189 54.741 78.5171 54.7406 79.0367V94.125H51.9765V83.7736C51.9756 83.2533 51.7659 82.7546 51.3933 82.3867C51.0206 82.0189 50.5155 81.8118 49.9885 81.811H40.4938C39.9667 81.8114 39.4613 82.0183 39.0885 82.3863C38.7158 82.7542 38.5062 83.2532 38.5058 83.7736V94.125H32.5895C32.337 93.2479 31.7756 92.4886 31.0064 91.9838C30.2372 91.479 29.3108 91.2619 28.3938 91.3715C27.4769 91.481 26.6297 91.9102 26.0047 92.5816C25.3798 93.253 25.0182 94.1226 24.9849 95.0338C24.9517 95.9451 25.2491 96.8381 25.8235 97.5521C26.3979 98.2661 27.2117 98.7543 28.1183 98.9287C29.0248 99.1031 29.9647 98.9523 30.7687 98.5034C31.5726 98.0545 32.1879 97.337 32.5036 96.4801H105.236C105.552 96.4801 105.856 96.356 106.079 96.1352C106.303 95.9144 106.429 95.6149 106.429 95.3026C106.429 94.9903 106.303 94.6907 106.079 94.4699C105.856 94.2491 105.552 94.125 105.236 94.125ZM28.868 96.6371C28.5718 96.6393 28.2817 96.5546 28.0344 96.3937C27.7871 96.2329 27.5937 96.0032 27.4789 95.7337C27.364 95.4642 27.3328 95.1671 27.3892 94.8801C27.4456 94.5931 27.5871 94.3291 27.7958 94.1216C28.0044 93.9141 28.2708 93.7724 28.561 93.7146C28.8513 93.6568 29.1525 93.6853 29.4263 93.7967C29.7001 93.9081 29.9343 94.0972 30.0991 94.3402C30.2638 94.5831 30.3518 94.8689 30.3518 95.1613C30.3535 95.355 30.3164 95.5471 30.2426 95.7267C30.1689 95.9062 30.06 96.0696 29.9221 96.2074C29.7842 96.3453 29.6201 96.4549 29.4392 96.53C29.2583 96.6051 29.0642 96.6441 28.868 96.645V96.6371ZM49.5893 93.9837H40.8914V90.7808H49.5893V93.9837ZM49.5893 88.4257H40.8914V84.1661H49.5893V88.4257ZM65.8209 85.7346H65.0782C64.7619 85.7346 64.4585 85.8587 64.2348 86.0795C64.0111 86.3003 63.8854 86.5998 63.8854 86.9121C63.8854 87.2244 64.0111 87.524 64.2348 87.7448C64.4585 87.9656 64.7619 88.0897 65.0782 88.0897H65.8209V93.9837H57.1262V88.0897H59.8299C60.1462 88.0897 60.4496 87.9656 60.6733 87.7448C60.897 87.524 61.0227 87.2244 61.0227 86.9121C61.0227 86.5998 60.897 86.3003 60.6733 86.0795C60.4496 85.8587 60.1462 85.7346 59.8299 85.7346H57.1262V79.4245H65.8257L65.8209 85.7346ZM82.0526 93.9837H73.3483V84.3828H82.0478L82.0526 93.9837ZM82.0526 82.0277H73.3483V72.4016H82.0478L82.0526 82.0277ZM98.3176 93.9837H89.6181V80.8046H98.3176V93.9837Z" fill="#00A0E1"/>
<path d="M45.1043 70.7309C47.0149 70.7218 48.8905 70.2243 50.5485 69.2871C52.2065 68.3499 53.5904 67.0048 54.5655 65.3828C55.5405 63.7608 56.0735 61.9171 56.1126 60.0314C56.1517 58.1457 55.6954 56.2821 54.7883 54.6221C54.6379 54.3473 54.3831 54.1427 54.0799 54.0533C53.7768 53.9639 53.45 53.9971 53.1717 54.1456C52.8933 54.294 52.686 54.5456 52.5955 54.8449C52.505 55.1442 52.5386 55.4667 52.689 55.7415C53.5807 57.3819 53.9027 59.2657 53.6056 61.1041C53.3086 62.9425 52.4088 64.6339 51.0444 65.9189C49.68 67.204 47.9263 68.0117 46.0522 68.2182C44.1781 68.4246 42.2871 68.0185 40.6693 67.062C39.0515 66.1056 37.7961 64.6516 37.0958 62.9231C36.3955 61.1946 36.2889 59.287 36.7924 57.493C37.2958 55.6989 38.3815 54.1175 39.8829 52.9911C41.3844 51.8648 43.2186 51.2557 45.1043 51.2574C46.6576 51.2565 48.182 51.6722 49.5145 52.4601C49.786 52.6206 50.1109 52.6681 50.4178 52.5922C50.7247 52.5162 50.9884 52.323 51.1511 52.055C51.3137 51.7871 51.3618 51.4663 51.2848 51.1633C51.2079 50.8604 51.0122 50.6 50.7407 50.4394C49.0373 49.4332 47.0894 48.902 45.1043 48.9023C39.0338 48.9023 34.094 53.7994 34.094 59.8174C34.094 65.8355 39.0338 70.7309 45.1043 70.7309Z" fill="#00A0E1"/>
<path d="M45.1043 65.9267C45.4206 65.9267 45.724 65.8026 45.9477 65.5818C46.1714 65.3609 46.2971 65.0614 46.2971 64.7491V64.5434H46.4275C47.2251 64.5434 47.9901 64.2306 48.5541 63.6738C49.1181 63.117 49.4349 62.3619 49.4349 61.5744C49.4349 60.787 49.1181 60.0318 48.5541 59.475C47.9901 58.9182 47.2251 58.6054 46.4275 58.6054H43.7811C43.6218 58.5975 43.4717 58.5294 43.3618 58.4153C43.2519 58.3012 43.1907 58.1498 43.1907 57.9923C43.1907 57.8349 43.2519 57.6835 43.3618 57.5694C43.4717 57.4553 43.6218 57.3872 43.7811 57.3792H47.1639C47.4802 57.3792 47.7836 57.2552 48.0073 57.0343C48.231 56.8135 48.3567 56.514 48.3567 56.2017C48.3567 55.8894 48.231 55.5899 48.0073 55.369C47.7836 55.1482 47.4802 55.0241 47.1639 55.0241H46.2971V54.4573C46.2971 54.145 46.1714 53.8455 45.9477 53.6247C45.724 53.4038 45.4206 53.2798 45.1043 53.2798C44.7879 53.2798 44.4845 53.4038 44.2608 53.6247C44.0372 53.8455 43.9115 54.145 43.9115 54.4573V55.0241H43.7811C42.9956 55.042 42.2484 55.3625 41.6993 55.9172C41.1502 56.4719 40.8428 57.2167 40.8428 57.9923C40.8428 58.7679 41.1502 59.5127 41.6993 60.0674C42.2484 60.6222 42.9956 60.9427 43.7811 60.9605H46.4275C46.5924 60.9605 46.7506 61.0252 46.8672 61.1403C46.9838 61.2555 47.0493 61.4116 47.0493 61.5744C47.0493 61.7372 46.9838 61.8934 46.8672 62.0085C46.7506 62.1237 46.5924 62.1883 46.4275 62.1883H42.4213C42.1049 62.1883 41.8015 62.3124 41.5778 62.5332C41.3541 62.7541 41.2285 63.0536 41.2285 63.3659C41.2285 63.6782 41.3541 63.9777 41.5778 64.1985C41.8015 64.4194 42.1049 64.5434 42.4213 64.5434H43.9115V64.7491C43.9115 65.0614 44.0372 65.3609 44.2608 65.5818C44.4845 65.8026 44.7879 65.9267 45.1043 65.9267Z" fill="#00A0E1"/>
<path d="M28.8788 79.6082C29.6679 79.6061 30.4377 79.3671 31.0859 78.9229C31.7342 78.4787 32.2302 77.8503 32.5081 77.1212H49.8276C50.651 77.0973 51.437 76.7761 52.0366 76.2184L65.237 63.1225C65.3866 63.0116 65.5622 62.9398 65.7475 62.9137H74.9002C75.7218 62.8884 76.5055 62.5667 77.1029 62.0093L93.0594 46.1783L93.9485 47.0592C94.1067 47.2229 94.2962 47.354 94.5062 47.4449C94.7162 47.5357 94.9423 47.5844 95.1715 47.5883C95.8888 47.5883 96.4995 47.1172 96.7269 46.3746L98.3571 41.0725C98.4409 40.8273 98.465 40.566 98.4274 40.3098C98.3898 40.0537 98.2916 39.8099 98.1408 39.5982C97.7511 39.0769 97.045 38.8697 96.3373 39.0832L91.0015 40.6988C90.7191 40.7755 90.4619 40.9233 90.255 41.1279C90.0481 41.3324 89.8987 41.5866 89.8214 41.8654C89.7582 42.1462 89.7697 42.4383 89.8547 42.7134C89.9397 42.9885 90.0953 43.2373 90.3065 43.4354L91.3816 44.5015L75.4155 60.3529C75.2655 60.4645 75.0894 60.5369 74.9034 60.5633H65.7427C64.9217 60.5879 64.1385 60.9091 63.5416 61.4661L50.3412 74.5604C50.1913 74.6721 50.0151 74.7444 49.8291 74.7708H32.6226C32.4317 74.082 32.0495 73.4596 31.5193 72.9738C30.989 72.488 30.3318 72.1582 29.6217 72.0217C28.9117 71.8851 28.1771 71.9472 27.5009 72.2009C26.8247 72.4546 26.2338 72.8898 25.7949 73.4575C25.356 74.0252 25.0866 74.7026 25.017 75.4135C24.9474 76.1243 25.0805 76.8402 25.4012 77.4803C25.7219 78.1204 26.2175 78.6593 26.832 79.0361C27.4464 79.4129 28.1554 79.6127 28.8788 79.6129V79.6082ZM95.655 41.7523L94.793 44.558L92.8272 42.6112L95.655 41.7523ZM28.8788 74.2794C29.1772 74.2769 29.4696 74.3619 29.719 74.5238C29.9683 74.6857 30.1633 74.917 30.2793 75.1885C30.3952 75.4599 30.4269 75.7593 30.3702 76.0485C30.3135 76.3377 30.1711 76.6038 29.961 76.813C29.7509 77.0222 29.4825 77.1651 29.19 77.2235C28.8975 77.2819 28.5941 77.2532 28.3181 77.141C28.0422 77.0289 27.8062 76.8383 27.6401 76.5935C27.4741 76.3488 27.3854 76.0608 27.3854 75.7662C27.3841 75.3737 27.5406 74.9966 27.8206 74.7179C28.1006 74.4391 28.4811 74.2814 28.8788 74.2794Z" fill="#00A0E1"/>
</g>
<defs>
<clipPath id="clip0_613_267">
<rect width="131" height="137" fill="white"/>
</clipPath>
<clipPath id="clip1_613_267">
<rect width="81.4286" height="60" fill="white" transform="translate(25 39)"/>
</clipPath>
</defs>
</svg>
