<svg width="131" height="137" viewBox="0 0 131 137" fill="none" xmlns="http://www.w3.org/2000/svg">
<g clip-path="url(#clip0_613_250)">
<path d="M96.4084 14.2846C68.0709 -2.06532 59.2541 -5.78385 30.9578 10.5331C2.66153 26.8501 0 36.3979 0 69.0896C0 101.781 4.73802 107.709 33.0343 124.051C61.3305 140.393 68.9114 141.704 97.2076 125.354C125.504 109.004 119.052 99.9344 128.058 68.463C137.197 36.6123 124.672 30.6346 96.4084 14.2846Z" fill="#E0F6FF"/>
<g clip-path="url(#clip1_613_250)">
<path d="M91.4102 84.5576C91.6253 84.7726 91.917 84.8934 92.2212 84.8934C92.5253 84.8934 92.817 84.7726 93.0322 84.5576L95.3187 82.2711C95.7088 81.88 95.9278 81.3501 95.9278 80.7978C95.9278 80.2454 95.7088 79.7155 95.3187 79.3244L81.8582 65.8639L80.2362 67.4859L82.8917 70.1414L78.1704 74.8626C77.9553 75.0777 77.8345 75.3695 77.8345 75.6736C77.8345 75.9778 77.9553 76.2696 78.1704 76.4847C78.3855 76.6997 78.6772 76.8206 78.9814 76.8206C79.2856 76.8206 79.5773 76.6997 79.7924 76.4847L84.5137 71.7634L85.9814 73.2311L81.2601 77.9524C81.0453 78.1675 80.9246 78.4592 80.9247 78.7633C80.9248 79.0673 81.0456 79.3589 81.2606 79.5739C81.4756 79.7889 81.7672 79.9098 82.0713 79.9099C82.3754 79.9099 82.667 79.7893 82.8822 79.5744L87.6034 74.8531L89.0712 76.3209L84.3499 81.0421C84.135 81.2573 84.0143 81.5489 84.0144 81.853C84.0145 82.1571 84.1353 82.4487 84.3503 82.6637C84.5654 82.8787 84.857 82.9995 85.161 82.9996C85.4651 82.9997 85.7568 82.879 85.9719 82.6641L90.6932 77.9429L93.5475 80.7972L91.4096 82.9351C91.1946 83.1504 91.074 83.4422 91.0741 83.7465C91.0742 84.0507 91.1951 84.3425 91.4102 84.5576Z" fill="#00A0E1"/>
<path d="M85.1664 62.5557C85.524 62.1991 85.8063 61.7743 85.9966 61.3065L91.2389 48.4735C91.3772 48.1349 91.4125 47.7629 91.3403 47.4043C91.268 47.0457 91.0915 46.7165 90.8328 46.4578C90.5742 46.1992 90.2449 46.0226 89.8863 45.9504C89.5277 45.8782 89.1558 45.9134 88.8172 46.0517L75.9841 51.2941C75.5164 51.4844 75.0916 51.7667 74.735 52.1242L73.7528 53.1064L64.5626 62.2966L62.9406 63.9186L60.4911 66.3681L58.8691 67.9901L53.1572 73.702L51.5352 75.324L49.0859 77.7733L47.4639 79.3953L39.8957 86.9635L38.2737 88.5855L35.469 91.3902C34.7836 92.0751 34.2398 92.8882 33.8688 93.7833C33.4977 94.6783 33.3066 95.6377 33.3064 96.6066C33.3062 97.5755 33.4969 98.5349 33.8676 99.4301C34.2383 100.325 34.7817 101.139 35.4668 101.824C36.1519 102.509 36.9653 103.052 37.8605 103.423C38.7557 103.794 39.7152 103.984 40.6841 103.984C41.653 103.984 42.6124 103.793 43.5074 103.422C44.4024 103.051 45.2156 102.507 45.9004 101.822L58.2017 89.5204C58.4168 89.3053 58.5377 89.0135 58.5377 88.7094C58.5377 88.4052 58.4168 88.1134 58.2017 87.8984C57.9866 87.6833 57.6949 87.5624 57.3907 87.5624C57.0865 87.5624 56.7948 87.6833 56.5797 87.8984L54.0194 90.4587L51.2368 87.676L79.9508 58.962L82.7334 61.7447L60.3644 84.1137C60.2578 84.2202 60.1732 84.3466 60.1155 84.4858C60.0578 84.625 60.0281 84.7741 60.028 84.9248C60.028 85.0755 60.0576 85.2247 60.1153 85.3639C60.1729 85.5031 60.2574 85.6296 60.364 85.7361C60.4705 85.8427 60.597 85.9272 60.7362 85.9848C60.8754 86.0425 61.0246 86.0721 61.1753 86.0721C61.326 86.072 61.4751 86.0423 61.6143 85.9846C61.7535 85.9269 61.8799 85.8423 61.9864 85.7357L64.1936 83.5285L66.8451 80.877L70.4732 77.2489L72.0952 75.6269L80.2362 67.4859L81.8582 65.8639L85.1664 62.5557ZM88.722 48.5688L86.877 53.0866L84.204 50.4137L88.722 48.5688ZM75.546 54.5573L78.3288 57.34L49.6148 86.054L46.832 83.2712L75.546 54.5573ZM44.2779 100.2C43.3247 101.153 42.032 101.689 40.6841 101.689C39.3362 101.689 38.0435 101.153 37.0904 100.2C36.1373 99.2471 35.6019 97.9544 35.6019 96.6065C35.6019 95.2586 36.1373 93.9659 37.0904 93.0128L40.3265 89.7767L47.5139 96.9641L44.2779 100.2ZM52.3974 92.0807L49.136 95.3421L41.9485 88.1547L45.21 84.8933L52.3974 92.0807ZM77.4186 53.1858L81.9011 51.3548L85.9359 55.3896L84.1048 59.8721L77.4186 53.1858Z" fill="#00A0E1"/>
<path d="M47.9182 65.5076C48.0862 65.2542 48.1466 64.9445 48.0864 64.6465C48.0261 64.3485 47.85 64.0867 47.5967 63.9185C47.3435 63.7504 47.0338 63.6896 46.7358 63.7496C46.4378 63.8097 46.1758 63.9856 46.0074 64.2386C44.4815 66.5511 43.7938 69.3164 44.0588 72.0742C44.3237 74.832 45.5254 77.4158 47.4638 79.3954L49.0858 77.7734C47.5206 76.1691 46.5514 74.0776 46.339 71.8464C46.1266 69.6151 46.6839 67.3784 47.9182 65.5076Z" fill="#00A0E1"/>
<path d="M51.6084 66.4412C50.435 67.6171 49.77 69.2065 49.7563 70.8676C49.7426 72.5287 50.3813 74.1289 51.5351 75.324L53.1571 73.702C52.4319 72.938 52.0337 71.9211 52.0474 70.8678C52.061 69.8145 52.4855 68.8082 53.2304 68.0633C53.9752 67.3185 54.9815 66.894 56.0348 66.8803C57.0881 66.8666 58.1051 67.2648 58.869 67.9901L60.4911 66.3681C59.2959 65.2145 57.6958 64.5759 56.0348 64.5896C54.3738 64.6032 52.7844 65.2681 51.6084 66.4412Z" fill="#00A0E1"/>
<path d="M83.785 90.5608L81.2642 93.0816C80.4201 93.9237 79.2765 94.3965 78.0843 94.3965C76.8921 94.3965 75.7485 93.9237 74.9045 93.0816L67.7535 85.9307C67.1055 85.281 66.6713 84.449 66.5089 83.5459C66.3466 82.6428 66.4638 81.7117 66.845 80.8771L64.1936 83.5285C64.3607 85.0103 65.0139 86.395 66.051 87.4665L56.2012 97.3163C55.7208 97.7967 55.3396 98.3671 55.0796 98.9948C54.8196 99.6226 54.6858 100.295 54.6858 100.975C54.6858 101.654 54.8196 102.327 55.0796 102.955C55.3396 103.583 55.7208 104.153 56.2012 104.633C56.6816 105.114 57.252 105.495 57.8797 105.755C58.5075 106.015 59.1803 106.149 59.8597 106.149C60.5392 106.149 61.212 106.015 61.8397 105.755C62.4674 105.495 63.0378 105.114 63.5183 104.633L73.3675 94.7841C74.6489 96.0195 76.3638 96.703 78.1437 96.6879C79.9236 96.6727 81.6265 95.9601 82.8867 94.7031L89.2475 88.3423C89.4626 88.1273 89.5834 87.8355 89.5834 87.5313C89.5834 87.2272 89.4625 86.9354 89.2475 86.7203C89.0324 86.5052 88.7406 86.3844 88.4364 86.3844C88.1323 86.3844 87.8405 86.5052 87.6254 86.7203L85.407 88.9388L72.0951 75.627L70.4731 77.249L83.785 90.5608ZM61.8962 103.011C61.3561 103.551 60.6236 103.854 59.86 103.854C59.0963 103.854 58.364 103.551 57.824 103.011C57.284 102.471 56.9806 101.738 56.9805 100.975C56.9803 100.211 57.2834 99.4785 57.8232 98.9383L67.6702 89.0913L71.7432 93.1644L61.8962 103.011Z" fill="#00A0E1"/>
<path d="M37.8704 84.9383C37.7978 84.8659 37.757 84.7676 37.7569 84.665C37.7568 84.5625 37.7974 84.4641 37.8698 84.3916L41.2744 80.9869C41.6692 80.5919 41.9307 80.0834 42.0224 79.5325C42.114 78.9816 42.0313 78.4158 41.7857 77.9142C41.497 77.3233 41.2453 76.715 41.0321 76.0928C40.8517 75.5635 40.5103 75.104 40.0556 74.7785C39.6009 74.4531 39.0557 74.2781 38.4966 74.2782L33.6807 74.2776C33.6299 74.2777 33.5795 74.2678 33.5325 74.2484C33.4854 74.229 33.4427 74.2005 33.4068 74.1646C33.3708 74.1286 33.3423 74.0859 33.3229 74.0389C33.3035 73.9919 33.2936 73.9415 33.2937 73.8906L33.2939 67.9512C33.2938 67.9004 33.3038 67.8501 33.3232 67.8031C33.3426 67.7561 33.3711 67.7135 33.4071 67.6775C33.443 67.6416 33.4857 67.6131 33.5326 67.5937C33.5796 67.5743 33.6299 67.5643 33.6807 67.5644L38.4967 67.5636C39.0557 67.5635 39.6006 67.3886 40.0552 67.0634C40.5098 66.7382 40.8514 66.2791 41.0322 65.7502C41.2453 65.1276 41.4969 64.519 41.7857 63.9277C42.0312 63.4262 42.1139 62.8606 42.0223 62.3098C41.9307 61.759 41.6694 61.2505 41.2749 60.8554L37.8698 57.4504C37.7975 57.3779 37.7568 57.2796 37.7568 57.1772C37.7568 57.0747 37.7975 56.9765 37.8698 56.904L42.0706 52.7032C42.1431 52.6308 42.2414 52.5902 42.3438 52.5902C42.4463 52.5902 42.5445 52.6308 42.617 52.7032L46.0215 56.1077C46.4166 56.5024 46.9251 56.7639 47.476 56.8556C48.027 56.9473 48.5927 56.8646 49.0944 56.6191C49.6856 56.3306 50.2941 56.0788 50.9162 55.865C51.4453 55.6846 51.9046 55.3431 52.2299 54.8886C52.5552 54.434 52.7302 53.889 52.7303 53.3301V48.5136C52.7306 48.4111 52.7715 48.3129 52.844 48.2404C52.9165 48.1678 53.0147 48.127 53.1173 48.1267L59.0578 48.1265C59.1604 48.1268 59.2586 48.1677 59.3311 48.2402C59.4036 48.3127 59.4445 48.411 59.4448 48.5135L59.4441 53.3295C59.4445 53.8887 59.6197 54.4338 59.9452 54.8885C60.2706 55.3432 60.7301 55.6849 61.2593 55.8656C61.8814 56.079 62.4897 56.3307 63.0808 56.6191C63.5825 56.8644 64.1482 56.9471 64.6991 56.8554C65.2499 56.7637 65.7584 56.5024 66.1536 56.1078L69.5581 52.7033C69.6306 52.6309 69.7288 52.5901 69.8313 52.59C69.9338 52.5898 70.0322 52.6303 70.1049 52.7026L72.1302 54.7279L64.562 62.2961L64.5626 62.2967L73.7528 53.1064L71.7269 51.0806C71.2239 50.5787 70.5423 50.2969 69.8318 50.2969C69.1212 50.2969 68.4396 50.5788 67.9366 51.0807L64.5316 54.4858C64.4745 54.5425 64.4011 54.5799 64.3217 54.5928C64.2423 54.6057 64.1609 54.5935 64.0888 54.5577C63.412 54.2273 62.7153 53.9391 62.0028 53.695C61.9262 53.6691 61.8596 53.6201 61.8122 53.5545C61.7648 53.489 61.7391 53.4103 61.7385 53.3295L61.7387 48.5129C61.7377 47.8024 61.4549 47.1212 60.9525 46.6188C60.4501 46.1164 59.7689 45.8337 59.0584 45.8326L53.1178 45.8328C52.4071 45.8337 51.7258 46.1165 51.2232 46.619C50.7207 47.1216 50.4379 47.8029 50.437 48.5136V53.3301C50.4366 53.4108 50.4109 53.4894 50.3637 53.5548C50.3164 53.6203 50.2498 53.6693 50.1733 53.695C49.4605 53.9392 48.7637 54.2275 48.0867 54.5583C48.0145 54.5939 47.933 54.606 47.8535 54.593C47.774 54.58 47.7006 54.5424 47.6435 54.4857L44.239 51.0812C43.7361 50.5791 43.0545 50.2972 42.3438 50.2972C41.6332 50.2972 40.9516 50.5791 40.4486 51.0812L36.2482 55.2815C35.7462 55.7845 35.4641 56.4662 35.4641 57.1769C35.464 57.8876 35.7458 58.5693 36.2478 59.0724L39.6523 62.4769C39.7092 62.5339 39.7468 62.6073 39.7598 62.6868C39.7729 62.7663 39.7607 62.8479 39.725 62.9201C39.3945 63.597 39.1064 64.2937 38.8621 65.0062C38.8364 65.0827 38.7874 65.1492 38.722 65.1965C38.6565 65.2438 38.578 65.2694 38.4973 65.2698L33.6807 65.2699C32.97 65.2708 32.2887 65.5535 31.7862 66.0561C31.2836 66.5586 31.0009 67.2399 31 67.9506L31.0004 73.8906C31.0005 74.6015 31.2829 75.2833 31.7855 75.7862C32.2881 76.289 32.9698 76.5716 33.6807 76.572L38.4966 76.5715C38.5775 76.5716 38.6563 76.5971 38.722 76.6444C38.7877 76.6917 38.8369 76.7583 38.8628 76.835C39.1063 77.5477 39.3945 78.2444 39.7255 78.921C39.7611 78.9933 39.7732 79.0748 39.7602 79.1543C39.7472 79.2337 39.7097 79.3072 39.653 79.3643L36.2478 82.7696C35.746 83.2727 35.4642 83.9544 35.4643 84.665C35.4644 85.3757 35.7464 86.0573 36.2484 86.5603L38.2737 88.5856L39.8957 86.9636L37.8704 84.9383Z" fill="#00A0E1"/>
<path d="M50.3852 60.2562C50.2522 60.3272 50.1346 60.4237 50.039 60.5401C49.9434 60.6566 49.8716 60.7908 49.8279 60.935C49.7842 61.0792 49.7693 61.2306 49.7841 61.3805C49.799 61.5305 49.8432 61.6761 49.9143 61.8089C49.9854 61.9417 50.082 62.0593 50.1986 62.1548C50.3152 62.2502 50.4494 62.3218 50.5937 62.3654C50.7379 62.409 50.8893 62.4237 51.0393 62.4087C51.1892 62.3937 51.3347 62.3493 51.4675 62.278C53.3084 61.3061 55.4096 60.9414 57.4703 61.2361C59.531 61.5308 61.4458 62.4697 62.9405 63.9186L64.5625 62.2966C62.7223 60.477 60.3426 59.3018 57.7792 58.9468C55.2381 58.5941 52.6506 59.0523 50.3852 60.2562Z" fill="#00A0E1"/>
<path d="M59.2469 101.588C59.462 101.803 59.7537 101.923 60.0579 101.923C60.3621 101.923 60.6538 101.803 60.8689 101.588L62.6938 99.7628C62.9089 99.5477 63.0297 99.2559 63.0297 98.9517C63.0297 98.6476 62.9089 98.3558 62.6938 98.1407C62.4787 97.9256 62.1869 97.8048 61.8828 97.8048C61.5786 97.8048 61.2868 97.9257 61.0718 98.1407L59.2469 99.9656C59.0319 100.181 58.9111 100.472 58.9111 100.777C58.9111 101.081 59.0319 101.372 59.2469 101.588Z" fill="#00A0E1"/>
<path d="M90.6267 59.1794C91.54 61.0357 91.5396 61.943 90.6271 63.7993C90.4812 64.0955 90.4317 64.4299 90.4856 64.7557C90.5395 65.0814 90.694 65.3821 90.9274 65.6155C91.1609 65.849 91.4616 66.0035 91.7873 66.0574C92.113 66.1112 92.4475 66.0617 92.7436 65.9159C94.6001 65.0023 95.5067 65.0024 97.3626 65.9153C97.6587 66.0614 97.9932 66.1111 98.319 66.0573C98.6448 66.0036 98.9456 65.8492 99.1791 65.6157C99.4127 65.3823 99.5673 65.0816 99.6212 64.7558C99.6751 64.43 99.6256 64.0955 99.4797 63.7993C98.5666 61.9425 98.5667 61.0357 99.4795 59.18C99.6254 58.8839 99.6749 58.5495 99.6211 58.2238C99.5673 57.898 99.4129 57.5973 99.1795 57.3638C98.9462 57.1303 98.6456 56.9758 98.3199 56.9218C97.9942 56.8678 97.6598 56.9171 97.3636 57.0629C95.5068 57.9758 94.6 57.9758 92.7432 57.0629C92.447 56.9172 92.1127 56.8679 91.7871 56.9218C91.4614 56.9757 91.1608 57.1302 90.9274 57.3636C90.694 57.597 90.5395 57.8976 90.4856 58.2232C90.4317 58.5489 90.481 58.8832 90.6267 59.1794ZM96.7734 59.7695C96.4161 60.8884 96.4161 62.0908 96.7734 63.2096C95.6546 62.8521 94.4522 62.8521 93.3333 63.2096C93.6908 62.0906 93.6907 60.888 93.3329 59.7691C94.4518 60.1267 95.6544 60.1268 96.7734 59.7695Z" fill="#00A0E1"/>
<path d="M60.1628 38.4882L61.9966 45.3299C62.0862 45.6637 62.2619 45.968 62.5063 46.2124C62.7507 46.4568 63.055 46.6326 63.3888 46.7221L70.2305 48.5559C70.5646 48.6449 70.9162 48.6447 71.2502 48.5552C71.5842 48.4657 71.8888 48.2902 72.1337 48.0461L77.1421 43.0376C77.3862 42.7928 77.5617 42.4881 77.6512 42.1542C77.7406 41.8202 77.7408 41.4687 77.6518 41.1346L75.8186 34.2923C75.7286 33.9588 75.5527 33.6546 75.3084 33.4103C75.0641 33.166 74.76 32.9901 74.4264 32.9001L67.5841 31.0669C67.2501 30.9778 66.8985 30.978 66.5645 31.0675C66.2306 31.1569 65.9259 31.3325 65.6811 31.5766L60.6727 36.585C60.4285 36.8299 60.2529 37.1345 60.1634 37.4685C60.074 37.8025 60.0738 38.1541 60.1628 38.4882ZM67.1708 33.3309L73.6514 35.0673L75.3878 41.5479L70.6439 46.2919L64.1632 44.5555L62.4269 38.0749L67.1708 33.3309Z" fill="#00A0E1"/>
<path d="M71.9286 42.832C72.526 42.2344 72.9327 41.4731 73.0974 40.6444C73.2621 39.8157 73.1774 38.9567 72.8539 38.1761C72.5305 37.3955 71.9828 36.7284 71.2802 36.259C70.5776 35.7897 69.7516 35.5392 68.9067 35.5393C68.0617 35.5394 67.2358 35.79 66.5332 36.2595C65.8307 36.729 65.2832 37.3962 64.9599 38.1769C64.6366 38.9575 64.552 39.8165 64.7169 40.6452C64.8817 41.4739 65.2886 42.2351 65.8861 42.8326C66.6881 43.6326 67.7747 44.0818 68.9075 44.0817C70.0403 44.0816 71.1268 43.6322 71.9286 42.832ZM67.5087 38.4121C67.7855 38.1355 68.138 37.9472 68.5218 37.871C68.9056 37.7949 69.3033 37.8342 69.6647 37.984C70.0262 38.1338 70.3351 38.3875 70.5523 38.7129C70.7696 39.0382 70.8856 39.4207 70.8855 39.812C70.8854 40.2033 70.7693 40.5857 70.5519 40.911C70.3345 41.2363 70.0255 41.4898 69.664 41.6395C69.3025 41.7892 68.9047 41.8284 68.521 41.752C68.1373 41.6756 67.7848 41.4872 67.5081 41.2106C67.1377 40.8391 66.9297 40.3358 66.9299 39.8112C66.93 39.2866 67.1381 38.7834 67.5087 38.4121Z" fill="#00A0E1"/>
<path d="M95.3767 71.9832L96.3984 73.0048L95.3767 74.0265C95.2702 74.133 95.1857 74.2594 95.1281 74.3986C95.0704 74.5377 95.0408 74.6869 95.0408 74.8375C95.0408 74.9881 95.0704 75.1372 95.1281 75.2764C95.1857 75.4155 95.2702 75.542 95.3767 75.6485C95.4832 75.755 95.6096 75.8395 95.7488 75.8971C95.888 75.9548 96.0371 75.9844 96.1877 75.9844C96.3383 75.9844 96.4875 75.9548 96.6266 75.8971C96.7658 75.8395 96.8922 75.755 96.9987 75.6485L98.0204 74.6268L99.042 75.6485C99.2571 75.8636 99.5488 75.9844 99.853 75.9844C100.157 75.9844 100.449 75.8636 100.664 75.6485C100.879 75.4334 101 75.1417 101 74.8375C101 74.5333 100.879 74.2416 100.664 74.0265L99.6424 73.0048L100.664 71.9832C100.771 71.8767 100.855 71.7503 100.913 71.6111C100.971 71.4719 101 71.3227 101 71.172C101 71.0214 100.971 70.8722 100.913 70.733C100.856 70.5937 100.771 70.4672 100.664 70.3607C100.558 70.2542 100.431 70.1697 100.292 70.112C100.153 70.0544 100.004 70.0247 99.8532 70.0248C99.7025 70.0248 99.5533 70.0546 99.4141 70.1123C99.2749 70.17 99.1485 70.2546 99.042 70.3612L98.0204 71.3828L96.9987 70.3612C96.8922 70.2547 96.7658 70.1702 96.6266 70.1125C96.4875 70.0549 96.3383 70.0252 96.1877 70.0252C96.0371 70.0252 95.8879 70.0549 95.7488 70.1125C95.6096 70.1702 95.4832 70.2547 95.3767 70.3612C95.2702 70.4677 95.1857 70.5941 95.1281 70.7333C95.0704 70.8724 95.0408 71.0216 95.0408 71.1722C95.0408 71.3228 95.0704 71.4719 95.1281 71.6111C95.1857 71.7502 95.2702 71.8767 95.3767 71.9832Z" fill="#00A0E1"/>
</g>
</g>
<defs>
<clipPath id="clip0_613_250">
<rect width="131" height="137" fill="white"/>
</clipPath>
<clipPath id="clip1_613_250">
<rect width="70" height="75.1463" fill="white" transform="translate(31 31)"/>
</clipPath>
</defs>
</svg>
