<svg width="131" height="137" viewBox="0 0 131 137" fill="none" xmlns="http://www.w3.org/2000/svg">
<g clip-path="url(#clip0_1005_4)">
<path d="M96.4084 14.2969C68.0709 -2.05311 59.2541 -5.77164 30.9578 10.5453C2.66153 26.8623 0 36.4101 0 69.1018C0 101.793 4.73802 107.722 33.0343 124.063C61.3305 140.405 68.9114 141.716 97.2076 125.366C125.504 109.016 119.052 99.9466 128.058 68.4752C137.197 36.6245 124.672 30.6468 96.4084 14.2969Z" fill="#E3F7FF"/>
</g>
<mask id="mask0_1005_4" style="mask-type:luminance" maskUnits="userSpaceOnUse" x="31" y="33" width="70" height="71">
<path d="M101 33.0007H31V103.001H101V33.0007Z" fill="white"/>
</mask>
<g mask="url(#mask0_1005_4)">
<path d="M43.9571 97.9433C43.8582 97.7864 43.7283 97.6512 43.5755 97.546C43.4226 97.4409 43.2499 97.3679 43.068 97.3317C42.886 97.2954 42.6985 97.2966 42.517 97.3351C42.3355 97.3736 42.1638 97.4487 42.0122 97.5557C41.8607 97.6628 41.7325 97.7996 41.6356 97.9578C41.5386 98.116 41.4749 98.2923 41.4482 98.4759C41.4216 98.6595 41.4326 98.8466 41.4807 99.0259C41.5287 99.2051 41.6127 99.3726 41.7276 99.5183L43.7856 102.418C43.8845 102.575 44.0144 102.71 44.1673 102.815C44.3201 102.921 44.4928 102.994 44.6748 103.03C44.8567 103.066 45.0442 103.065 45.2257 103.026C45.4072 102.988 45.5789 102.913 45.7305 102.806C45.882 102.699 46.0102 102.562 46.1072 102.404C46.2041 102.245 46.2679 102.069 46.2945 101.886C46.3211 101.702 46.3101 101.515 46.2621 101.336C46.214 101.156 46.13 100.989 46.0151 100.843L43.9571 97.9433Z" fill="#00A0E1"/>
<path d="M59.5495 90.6773C58.4771 85.5108 55.4192 80.9718 51.034 78.0371L46.2513 74.8206C45.3209 74.199 44.2029 73.9211 43.0898 74.0348C41.9767 74.1485 40.938 74.6467 40.1525 75.4436V58.9691C40.1525 57.7554 39.6704 56.5914 38.8122 55.7332C37.954 54.875 36.79 54.3928 35.5763 54.3928C34.3626 54.3928 33.1986 54.875 32.3404 55.7332C31.4822 56.5914 31 57.7554 31 58.9691V80.1668C30.9947 82.926 31.8512 85.618 33.45 87.8668L35.9 91.3091C35.999 91.466 36.1288 91.6012 36.2817 91.7064C36.4345 91.8115 36.6072 91.8845 36.7892 91.9207C36.9711 91.957 37.1586 91.9558 37.3401 91.9173C37.5216 91.8788 37.6934 91.8037 37.8449 91.6967C37.9964 91.5896 38.1246 91.4528 38.2216 91.2946C38.3185 91.1364 38.3823 90.9601 38.4089 90.7765C38.4355 90.5929 38.4245 90.4058 38.3765 90.2265C38.3284 90.0473 38.2444 89.8798 38.1295 89.7341L35.6865 86.2918C34.4125 84.5039 33.7297 82.3622 33.7335 80.1668V58.9691C33.7333 58.4803 33.9273 58.0116 34.2727 57.6658C34.6182 57.3201 35.0868 57.1258 35.5755 57.1256C36.0643 57.1254 36.5331 57.3194 36.8788 57.6648C37.2245 58.0102 37.4188 58.4789 37.419 58.9676V75.7883C37.4165 78.1578 38.2947 80.4437 39.883 82.2021C39.9513 82.2843 40.0213 82.3648 40.0948 82.4436C41.003 83.4061 42.0705 84.5436 43.0698 85.6076L44.4698 87.1056L44.4838 87.1196L46.5943 89.3648C46.7172 89.4957 46.8647 89.6011 47.0284 89.6749C47.1921 89.7488 47.3687 89.7897 47.5482 89.7953C47.7277 89.8009 47.9065 89.7711 48.0745 89.7076C48.2425 89.6441 48.3963 89.5481 48.5271 89.4252C48.658 89.3022 48.7634 89.1547 48.8373 88.991C48.9111 88.8274 48.952 88.6507 48.9576 88.4713C48.9633 88.2918 48.9334 88.1129 48.8699 87.945C48.8064 87.777 48.7105 87.6232 48.5875 87.4923L45.1348 83.8173L42.0005 80.4801L41.9778 80.4538C41.6196 80.029 41.4268 79.4892 41.4348 78.9336C41.4429 78.3781 41.6512 77.8441 42.0215 77.4298C42.3524 77.0565 42.8071 76.8154 43.3018 76.7511C43.7964 76.6868 44.2977 76.8035 44.713 77.0798L49.4958 80.2963C53.2887 82.8344 55.9336 86.7601 56.8615 91.2286L59.1015 101.904C59.1379 102.08 59.2087 102.247 59.3099 102.396C59.4111 102.544 59.5406 102.672 59.6911 102.77C59.8415 102.869 60.01 102.937 60.1867 102.97C60.3635 103.004 60.5451 103.002 60.7212 102.965C60.8972 102.928 61.0642 102.856 61.2126 102.755C61.3611 102.653 61.488 102.523 61.5861 102.373C61.6842 102.222 61.7516 102.053 61.7844 101.876C61.8172 101.699 61.8148 101.518 61.7773 101.342L59.5495 90.6773Z" fill="#00A0E1"/>
<path d="M41.1204 93.941C41.016 93.7949 40.8839 93.6707 40.7316 93.5756C40.5793 93.4805 40.4097 93.4163 40.2326 93.3867C40.0555 93.3571 39.8742 93.3627 39.6993 93.4032C39.5243 93.4437 39.359 93.5182 39.2129 93.6225C39.0667 93.7269 38.9425 93.859 38.8474 94.0113C38.7523 94.1636 38.6881 94.3332 38.6586 94.5103C38.629 94.6874 38.6346 94.8687 38.6751 95.0436C38.7155 95.2186 38.79 95.3839 38.8944 95.53L38.9031 95.5423C39.0075 95.6884 39.1396 95.8126 39.2919 95.9077C39.4442 96.0028 39.6138 96.067 39.7909 96.0966C39.968 96.1262 40.1493 96.1206 40.3242 96.0801C40.4992 96.0396 40.6645 95.9651 40.8106 95.8608C40.9568 95.7564 41.081 95.6243 41.1761 95.472C41.2712 95.3197 41.3354 95.1501 41.3649 94.973C41.3945 94.7959 41.3889 94.6146 41.3484 94.4397C41.308 94.2647 41.2335 94.0994 41.1291 93.9533L41.1204 93.941Z" fill="#00A0E1"/>
<path d="M99.2868 55.3991C98.614 54.859 97.8022 54.5201 96.9451 54.4215C96.088 54.3229 95.2205 54.4686 94.4426 54.8418C93.6647 55.215 93.0082 55.8005 92.5487 56.5308C92.0892 57.261 91.8456 58.1063 91.8459 58.9691V75.4436C91.0604 74.6467 90.0217 74.1485 88.9086 74.0348C87.7954 73.9211 86.6775 74.199 85.7471 74.8206L80.9644 78.0371C76.5792 80.9718 73.5213 85.5108 72.4489 90.6773L70.2089 101.352C70.1344 101.707 70.2039 102.077 70.4021 102.381C70.6003 102.684 70.911 102.897 71.2659 102.971C71.6207 103.046 71.9906 102.976 72.2941 102.778C72.5977 102.58 72.8101 102.269 72.8846 101.914L75.1246 91.2391C76.0525 86.7706 78.6974 82.8449 82.4904 80.3068L87.2731 77.0903C87.6884 76.814 88.1897 76.6973 88.6844 76.7616C89.179 76.8259 89.6337 77.067 89.9646 77.4403C90.3345 77.8539 90.5428 78.387 90.5515 78.9418C90.5602 79.4965 90.3686 80.0359 90.0119 80.4608L89.9856 80.4906L83.3969 87.5011C83.1507 87.7658 83.0193 88.1172 83.0315 88.4785C83.0437 88.8397 83.1984 89.1815 83.4619 89.429C83.7253 89.6765 84.0761 89.8096 84.4374 89.7992C84.7988 89.7888 85.1413 89.6358 85.3901 89.3736C85.4094 89.3543 90.9901 83.4131 91.9036 82.4523C91.9771 82.3736 92.0471 82.2931 92.1154 82.2108C93.7037 80.4525 94.5818 78.1666 94.5794 75.7971V58.9691C94.5785 58.7271 94.6254 58.4873 94.7172 58.2634C94.809 58.0395 94.9441 57.8359 95.1146 57.6642C95.2851 57.4925 95.4878 57.3561 95.7111 57.2627C95.9343 57.1693 96.1738 57.1208 96.4158 57.12C96.6578 57.1192 96.8975 57.166 97.1214 57.2578C97.3453 57.3497 97.5489 57.4847 97.7206 57.6552C98.0674 57.9996 98.2632 58.4677 98.2648 58.9564V80.1668C98.2687 82.3622 97.5858 84.5039 96.3118 86.2918L85.9869 100.843C85.872 100.989 85.7879 101.156 85.7399 101.336C85.6919 101.515 85.6808 101.702 85.7075 101.886C85.7341 102.069 85.7978 102.245 85.8948 102.404C85.9918 102.562 86.1199 102.699 86.2715 102.806C86.423 102.913 86.5948 102.988 86.7763 103.026C86.9578 103.065 87.1452 103.066 87.3272 103.03C87.5092 102.993 87.6818 102.921 87.8347 102.815C87.9876 102.71 88.1174 102.575 88.2164 102.418L98.5413 87.8668C100.14 85.618 100.997 82.9261 100.991 80.1668V58.9691C100.993 58.2834 100.84 57.6061 100.543 56.9879C100.247 56.3697 99.8142 55.8266 99.2781 55.3991" fill="#00A0E1"/>
<path d="M79.2318 76.1592C79.5943 76.1592 79.9419 76.0153 80.1982 75.7589C80.4545 75.5026 80.5985 75.155 80.5985 74.7925V69.8802C80.6016 69.7121 80.5958 69.5438 80.581 69.3763H86.881C87.0605 69.3763 87.2382 69.3409 87.4041 69.2722C87.5699 69.2035 87.7206 69.1029 87.8475 68.9759C87.9744 68.849 88.0751 68.6984 88.1437 68.5325C88.2124 68.3667 88.2478 68.189 88.2478 68.0095V65.4545C88.2513 64.009 87.7658 62.6048 86.8701 61.4702C85.9745 60.3357 84.7214 59.5374 83.3145 59.2053L80.882 58.6243V58.1885C81.6912 57.6262 82.3525 56.8766 82.8095 56.0036C83.2666 55.1306 83.5059 54.1601 83.507 53.1748V50.009C83.5079 48.8398 83.1736 47.6948 82.5436 46.7098C81.9136 45.7248 81.0145 44.9411 79.9527 44.4515C78.8909 43.962 77.711 43.7871 76.5528 43.9477C75.3947 44.1083 74.3068 44.5975 73.4183 45.3575C72.8197 43.886 71.7957 42.6265 70.4773 41.7401C69.159 40.8538 67.6061 40.381 66.0175 40.3821C64.4289 40.3832 62.8767 40.8583 61.5596 41.7465C60.2425 42.6347 59.2203 43.8956 58.6238 45.368C57.7365 44.601 56.6473 44.1053 55.4861 43.9401C54.325 43.775 53.1408 43.9472 52.0748 44.4364C51.0088 44.9256 50.106 45.7111 49.474 46.6991C48.8421 47.6872 48.5076 48.8361 48.5105 50.009V53.1713C48.5117 54.1566 48.751 55.1271 49.2081 56.0001C49.6651 56.8731 50.3264 57.6227 51.1355 58.185V58.6208L48.703 59.2018C47.2962 59.5339 46.0431 60.3322 45.1475 61.4667C44.2518 62.6013 43.7663 64.0055 43.7698 65.451V68.0043C43.7698 68.3667 43.9138 68.7144 44.1701 68.9707C44.4264 69.227 44.7741 69.371 45.1365 69.371H51.419C51.4085 69.5373 51.4033 69.7035 51.4033 69.8715V74.7872C51.4033 74.9667 51.4386 75.1445 51.5073 75.3103C51.576 75.4761 51.6767 75.6268 51.8036 75.7537C51.9305 75.8806 52.0812 75.9813 52.247 76.05C52.4128 76.1186 52.5906 76.154 52.77 76.154H60.995C61.3566 76.1522 61.7026 76.0073 61.9576 75.751C62.2126 75.4947 62.3558 75.1479 62.3558 74.7864C62.3558 74.4249 62.2126 74.078 61.9576 73.8218C61.7026 73.5655 61.3566 73.4206 60.995 73.4188H59.5828V70.5995C59.5828 70.2368 59.4387 69.8889 59.1822 69.6324C58.9257 69.376 58.5779 69.2319 58.2152 69.2319C57.8524 69.2319 57.5046 69.376 57.2481 69.6324C56.9916 69.8889 56.8475 70.2368 56.8475 70.5995V73.424H54.135V69.875C54.1331 68.6 54.5616 67.3617 55.3512 66.3606C56.1408 65.3595 57.2452 64.6542 58.4855 64.359L62.2375 63.4595L64.7488 69.1715C64.8555 69.4145 65.0306 69.6212 65.2528 69.7663C65.475 69.9114 65.7346 69.9887 66 69.9887C66.2654 69.9887 66.5251 69.9114 66.7473 69.7663C66.9695 69.6212 67.1446 69.4145 67.2513 69.1715L69.759 63.4683L73.4988 64.3625C74.7421 64.656 75.8495 65.3615 76.641 66.3642C77.4325 67.367 77.8614 68.608 77.858 69.8855V73.424H75.1543V70.5995C75.1543 70.237 75.0103 69.8894 74.754 69.6331C74.4977 69.3767 74.15 69.2327 73.7875 69.2327C73.4251 69.2327 73.0774 69.3767 72.8211 69.6331C72.5648 69.8894 72.4208 70.237 72.4208 70.5995V73.424H70.872C70.5093 73.424 70.1615 73.5681 69.905 73.8246C69.6485 74.081 69.5044 74.4289 69.5044 74.7916C69.5044 75.1543 69.6485 75.5022 69.905 75.7587C70.1615 76.0152 70.5093 76.1592 70.872 76.1592H79.2318ZM77.3855 46.6263C78.2441 46.6274 79.0702 46.9543 79.6971 47.5409C80.324 48.1275 80.705 48.9302 80.763 49.7868H78.8625C77.2674 49.7868 75.6957 49.4039 74.2793 48.6703C74.5417 48.0637 74.9757 47.547 75.5279 47.1838C76.0801 46.8207 76.7246 46.6269 77.3855 46.6263ZM74.0028 52.9735V51.549C75.5425 52.1865 77.1926 52.5147 78.859 52.515H80.7665V53.166C80.7672 53.6105 80.6802 54.0507 80.5107 54.4616C80.3412 54.8724 80.0924 55.2459 79.7786 55.5606C79.4647 55.8753 79.092 56.1251 78.6816 56.2958C78.2712 56.4665 77.8312 56.5546 77.3868 56.5552C76.4891 56.5565 75.6278 56.2011 74.9922 55.5673C74.3566 54.9334 73.9988 54.0731 73.9975 53.1755V53.166L74.0028 52.9735ZM60.7605 48.3693C60.7544 47.0452 61.2489 45.7677 62.1448 44.7927C63.0408 43.8177 64.272 43.2173 65.5919 43.1117C66.9118 43.0062 68.2229 43.4033 69.2624 44.2234C70.3019 45.0436 70.9931 46.2263 71.1975 47.5345L68.8963 46.1818C68.6174 46.0177 68.2893 45.9579 67.9705 46.013C67.6516 46.0681 67.3627 46.2346 67.155 46.4828C66.6015 47.1448 65.9092 47.6772 65.1272 48.0422C64.3452 48.4072 63.4925 48.5959 62.6295 48.595H60.7605V48.3693ZM54.6355 46.6193C55.2965 46.6199 55.9428 46.8137 56.495 47.1768C57.0472 47.54 57.4812 48.0567 57.7435 48.6633C56.327 49.3965 54.7553 49.7794 53.1603 49.7798H51.258C51.3161 48.9232 51.6971 48.1205 52.3239 47.5339C52.9508 46.9473 53.777 46.6204 54.6355 46.6193ZM51.251 52.515H53.1585C54.8269 52.5149 56.4788 52.186 58.02 51.5473V53.166C58.02 54.0636 57.6635 54.9245 57.0287 55.5592C56.394 56.1939 55.5332 56.5505 54.6355 56.5505C53.7379 56.5505 52.8771 56.1939 52.2423 55.5592C51.6076 54.9245 51.251 54.0636 51.251 53.166V52.515ZM57.8555 61.6868C56.5645 61.9927 55.3644 62.6007 54.3541 63.4607C53.3438 64.3208 52.552 65.4083 52.0438 66.634H46.5015V65.4475C46.4984 64.6168 46.7769 63.8096 47.2914 63.1575C47.8059 62.5053 48.5262 62.0468 49.3348 61.8565L52.8173 61.0253C53.1164 60.954 53.3827 60.784 53.5733 60.5426C53.7638 60.3013 53.8674 60.0027 53.8673 59.6953V59.235C54.375 59.301 54.8891 59.301 55.3968 59.235V59.6953C55.3964 60.0138 55.5072 60.3226 55.7101 60.5683C55.9129 60.8139 56.1951 60.9811 56.508 61.041L58.5468 61.5293L57.8555 61.6868ZM61.6688 59.564C61.3155 59.4082 60.9488 59.2846 60.5733 59.1948L58.1233 58.6103V58.185C58.5637 57.8771 58.962 57.5129 59.308 57.1018C59.9192 58.0428 60.7203 58.8458 61.66 59.459L61.6688 59.564ZM67.6065 61.573L66.007 65.2113L64.404 61.5625V60.5965C65.4612 60.8123 66.5511 60.8123 67.6083 60.5965L67.6065 61.573ZM66.0175 58.0188C64.6252 58.0188 63.2898 57.4656 62.3052 56.4811C61.3207 55.4965 60.7675 54.1611 60.7675 52.7688V51.325H62.6365C64.7852 51.3279 66.8574 50.5277 68.4465 49.0815L71.2658 50.7388V52.97C71.2142 54.3275 70.6383 55.6122 69.6593 56.554C68.6803 57.4958 67.3743 58.0215 66.0158 58.0205M70.3383 59.571V59.4783C71.2855 58.8656 72.0934 58.0607 72.7095 57.1158C73.0531 57.5219 73.4478 57.8819 73.8838 58.1868V58.612L71.4338 59.1965C71.0552 59.2871 70.6856 59.4118 70.3295 59.5693M74.1305 61.6903L73.4445 61.5258L75.4955 61.034C75.8094 60.9752 76.0928 60.8085 76.2968 60.5627C76.5007 60.3169 76.6122 60.0076 76.612 59.6883V59.2368C77.1197 59.3027 77.6338 59.3027 78.1415 59.2368V59.697C78.1414 60.0045 78.245 60.303 78.4355 60.5444C78.6261 60.7857 78.8924 60.9557 79.1915 61.027L82.674 61.8583C83.4826 62.0485 84.2029 62.5071 84.7174 63.1592C85.232 63.8114 85.5104 64.6186 85.5073 65.4493V66.634H79.9475C79.4389 65.4087 78.6467 64.3216 77.636 63.4622C76.6253 62.6028 75.4251 61.9955 74.134 61.6903" fill="#00A0E1"/>
<path d="M66.0001 73.4241C65.6843 73.4244 65.3785 73.5343 65.1346 73.7349C64.8907 73.9355 64.7239 74.2144 64.6627 74.5242C64.6014 74.834 64.6494 75.1554 64.7986 75.4338C64.9477 75.7121 65.1888 75.9301 65.4806 76.0507C65.7725 76.1712 66.0971 76.1869 66.3992 76.0949C66.7013 76.003 66.9622 75.8091 67.1374 75.5464C67.3126 75.2837 67.3913 74.9683 67.36 74.6541C67.3288 74.3399 67.1896 74.0462 66.9661 73.8231C66.8392 73.6964 66.6886 73.5959 66.5228 73.5275C66.3571 73.459 66.1795 73.4239 66.0001 73.4241Z" fill="#00A0E1"/>
<path d="M65.9984 37.7801C66.3609 37.7801 66.7085 37.6361 66.9648 37.3797C67.2211 37.1234 67.3651 36.7758 67.3651 36.4133V34.3676C67.3633 34.006 67.2184 33.66 66.9621 33.405C66.7058 33.15 66.359 33.0068 65.9975 33.0068C65.636 33.0068 65.2892 33.15 65.0329 33.405C64.7766 33.66 64.6317 34.006 64.6299 34.3676V36.4133C64.6299 36.7758 64.7739 37.1234 65.0302 37.3797C65.2865 37.6361 65.6341 37.7801 65.9966 37.7801" fill="#00A0E1"/>
<path d="M59.0298 39.3953C59.1538 39.5345 59.3049 39.6469 59.4739 39.7255C59.6429 39.8042 59.8262 39.8474 60.0125 39.8526C60.1989 39.8578 60.3843 39.8248 60.5574 39.7557C60.7305 39.6865 60.8877 39.5827 61.0192 39.4506C61.1507 39.3185 61.2538 39.1609 61.3221 38.9875C61.3905 38.8141 61.4226 38.6285 61.4166 38.4422C61.4106 38.2559 61.3665 38.0728 61.2871 37.9041C61.2077 37.7355 61.0946 37.5849 60.9548 37.4615L59.5198 36.0283C59.3958 35.8891 59.2447 35.7767 59.0757 35.698C58.9067 35.6194 58.7234 35.5761 58.5371 35.571C58.3507 35.5658 58.1653 35.5988 57.9922 35.6679C57.8191 35.737 57.662 35.8408 57.5304 35.9729C57.3989 36.105 57.2958 36.2627 57.2275 36.4361C57.1592 36.6095 57.127 36.7951 57.133 36.9814C57.1391 37.1677 57.1831 37.3508 57.2626 37.5194C57.342 37.6881 57.455 37.8387 57.5948 37.962L59.0298 39.3953Z" fill="#00A0E1"/>
<path d="M71.9816 39.8224C72.1614 39.8227 72.3394 39.7874 72.5055 39.7186C72.6716 39.6499 72.8224 39.5489 72.9493 39.4216L74.3721 37.9971C74.5113 37.8731 74.6237 37.722 74.7023 37.553C74.781 37.384 74.8242 37.2007 74.8294 37.0144C74.8346 36.828 74.8016 36.6426 74.7325 36.4695C74.6634 36.2964 74.5595 36.1393 74.4274 36.0077C74.2953 35.8762 74.1377 35.7731 73.9643 35.7048C73.7909 35.6365 73.6053 35.6043 73.419 35.6103C73.2327 35.6164 73.0496 35.6604 72.8809 35.7398C72.7123 35.8193 72.5617 35.9323 72.4383 36.0721L71.0156 37.4966C70.8245 37.6878 70.6945 37.9315 70.6419 38.1966C70.5892 38.4618 70.6165 38.7366 70.72 38.9863C70.8236 39.236 70.999 39.4494 71.2238 39.5995C71.4487 39.7495 71.713 39.8295 71.9833 39.8294" fill="#00A0E1"/>
</g>
<defs>
<clipPath id="clip0_1005_4">
<rect width="131" height="137" fill="white"/>
</clipPath>
</defs>
</svg>
