<svg width="131" height="137" viewBox="0 0 131 137" fill="none" xmlns="http://www.w3.org/2000/svg">
<g clip-path="url(#clip0_701_121)">
<path d="M96.4084 14.2846C68.0709 -2.06532 59.2541 -5.78385 30.9578 10.5331C2.66153 26.8501 0 36.3979 0 69.0896C0 101.781 4.73802 107.709 33.0343 124.051C61.3305 140.393 68.9114 141.704 97.2076 125.354C125.504 109.004 119.052 99.9344 128.058 68.463C137.197 36.6123 124.672 30.6346 96.4084 14.2846Z" fill="#E0F6FF"/>
<g clip-path="url(#clip1_701_121)">
<path d="M48.6708 81.4616C45.1414 81.4616 42.2813 78.6001 42.2813 75.0721C42.2813 71.5441 45.1428 68.6826 48.6708 68.6826C52.1988 68.6826 55.0602 71.5441 55.0602 75.0721C55.0562 78.5987 52.1974 81.4575 48.6708 81.4616ZM48.6708 70.9365C46.3875 70.9365 44.5365 72.7875 44.5365 75.0708C44.5365 77.354 46.3875 79.205 48.6708 79.205C50.954 79.205 52.805 77.354 52.805 75.0708C52.8037 72.7875 50.9527 70.9378 48.6708 70.9365ZM54.6708 98H42.6427C39.0036 98 37 96.0085 37 92.3909C37 88.3891 39.2646 83.7167 45.6447 83.7167H51.658C58.0395 83.7167 60.3027 88.3877 60.3027 92.3909C60.3067 96.0085 58.3031 98 54.6694 98H54.6708ZM45.65 85.9719C42.3736 85.719 39.5108 88.1696 39.2579 91.4459C39.2338 91.7605 39.2338 92.0763 39.2605 92.3895C39.2605 94.7411 40.2737 95.7435 42.648 95.7435H54.6721C57.0464 95.7435 58.0596 94.7411 58.0596 92.3895C58.3272 89.1145 55.89 86.2409 52.6137 85.9733C52.2978 85.9478 51.9806 85.9465 51.6647 85.9719H45.6514H45.65Z" fill="#00A0E1"/>
<path d="M48.6532 66.7939C47.98 66.7939 47.4353 66.2492 47.4353 65.5759V56.0453C47.4353 54.0698 49.0414 52.4624 51.0182 52.4624H59.5156C60.1888 52.4624 60.7335 53.0071 60.7335 53.6803C60.7335 54.3535 60.1888 54.8983 59.5156 54.8983H51.0182C50.3865 54.8983 49.8712 55.4136 49.8712 56.0453V65.5759C49.8712 66.2478 49.3251 66.7939 48.6532 66.7939Z" fill="#00A0E1"/>
<path d="M48.6533 66.7941C48.308 66.7941 47.9774 66.6468 47.7459 66.3885L43.8244 62.016C43.3747 61.5155 43.4162 60.7445 43.9167 60.2948C44.4173 59.8451 45.1882 59.8866 45.6379 60.3872L48.652 63.7479L51.666 60.3872C52.1157 59.8866 52.8853 59.8451 53.3872 60.2948C53.8891 60.7445 53.9292 61.5141 53.4795 62.016L49.558 66.3885C49.3292 66.6455 48.9986 66.7941 48.6533 66.7941Z" fill="#00A0E1"/>
<path d="M78.8033 85.4994H70.3058C69.6326 85.4994 69.0879 84.9547 69.0879 84.2815C69.0879 83.6083 69.6326 83.0636 70.3058 83.0636H78.8033C79.435 83.0636 79.9503 82.5483 79.9503 81.9166V72.3859C79.9503 71.7127 80.495 71.168 81.1682 71.168C81.8414 71.168 82.3861 71.7127 82.3861 72.3859V81.9166C82.3861 83.8934 80.7801 85.4994 78.8033 85.4994Z" fill="#00A0E1"/>
<path d="M85.091 77.975C84.7577 77.975 84.4245 77.8385 84.1836 77.5695L81.1682 74.2088L78.1528 77.5695C77.7031 78.07 76.9335 78.1115 76.4316 77.6618C75.9297 77.2121 75.8896 76.4425 76.3393 75.9406L80.2607 71.5681C80.4923 71.3112 80.8215 71.1626 81.1668 71.1626C81.5121 71.1626 81.8427 71.3098 82.0729 71.5681L85.9944 75.9406C86.4441 76.4412 86.4026 77.2121 85.9021 77.6618C85.6718 77.8719 85.3814 77.9737 85.0923 77.9737L85.091 77.975Z" fill="#00A0E1"/>
<path d="M65.7981 68.6572C65.1678 68.6572 64.6565 68.1445 64.6565 67.5155V54.0339C64.6565 53.7863 64.6873 53.5387 64.7475 53.2991C64.7529 53.2804 64.7555 53.267 64.7596 53.2536L66.719 46.6219C66.0444 46.199 65.6027 45.3437 65.6027 44.344C65.6027 42.9079 66.5195 41.7836 67.6906 41.7836H73.0736L77.5532 39.3397C78.0257 39.0828 78.5597 38.9462 79.0964 38.9462H88.3165C88.4102 38.4095 88.8787 38 89.4421 38H93.2258C93.8561 38 94.3674 38.5126 94.3674 39.1416V45.2889C94.3674 45.9193 93.8548 46.4305 93.2258 46.4305H89.4421C88.9215 46.4305 88.4798 46.0799 88.3433 45.6021C87.9364 46.3984 87.2097 47.0047 86.3424 47.2536L88.097 53.2175C88.1787 53.4959 88.2202 53.7836 88.2202 54.0741V67.5155C88.2202 68.1459 87.7076 68.6572 87.0785 68.6572H65.7981ZM81.207 66.3725V54.0339C81.207 53.7863 81.2378 53.5387 81.298 53.2991C81.302 53.2831 81.3061 53.2683 81.3101 53.2536L82.5722 48.9801L81.9391 49.4727C81.4586 49.8447 80.8604 50.0495 80.2527 50.0495C79.7602 50.0495 79.2757 49.917 78.8515 49.6654C78.2184 49.2907 77.77 48.6924 77.5867 47.9804C77.4957 47.623 77.4756 47.259 77.5264 46.9043H69.0156L66.9585 53.8706C66.9465 53.9242 66.9398 53.979 66.9398 54.0352V66.3739H81.2057L81.207 66.3725ZM85.8552 64.6768L85.9356 64.7571V54.0741C85.9356 54.0018 85.9248 53.9322 85.9048 53.8626L84.7096 49.8019L83.5077 53.8706C83.4957 53.9242 83.4903 53.979 83.489 54.0352V64.7584L83.5693 64.6781H85.8539L85.8552 64.6768ZM82.3487 41.7823C82.6538 41.7823 82.9416 41.9014 83.1571 42.1169C83.6027 42.5626 83.6014 43.2866 83.1571 43.7323L79.9195 46.9699C79.7522 47.1358 79.7361 47.4022 79.8807 47.5882C79.9703 47.7033 80.1042 47.7689 80.2501 47.7689C80.3223 47.7689 80.4321 47.7515 80.5365 47.6699L83.4876 45.3745C83.7205 45.1938 84.0109 45.0948 84.3041 45.0935H85.4671C85.9851 45.0935 86.4067 44.6705 86.4067 44.1526C86.4067 43.3683 87.0464 42.7299 87.8294 42.7285H88.2978V41.2295H79.095C78.9384 41.2295 78.7819 41.2697 78.644 41.3446L77.841 41.7823H82.3473H82.3487ZM79.0388 44.6197L79.5916 44.0669H67.9262C67.9048 44.1312 67.886 44.2235 67.886 44.344C67.886 44.4644 67.9048 44.5568 67.9262 44.621H79.0375L79.0388 44.6197ZM92.0828 44.1472V40.2846H90.5838V44.1472H92.0828Z" fill="#00A0E1"/>
</g>
</g>
<defs>
<clipPath id="clip0_701_121">
<rect width="131" height="137" fill="white"/>
</clipPath>
<clipPath id="clip1_701_121">
<rect width="57.3674" height="60" fill="white" transform="translate(37 38)"/>
</clipPath>
</defs>
</svg>
