<svg width="32" height="32" viewBox="0 0 32 32" fill="none" xmlns="http://www.w3.org/2000/svg">
<mask id="mask0_613_853" style="mask-type:luminance" maskUnits="userSpaceOnUse" x="0" y="0" width="32" height="32">
<path d="M0 0H32V32H0V0Z" fill="white"/>
</mask>
<g mask="url(#mask0_613_853)">
<path d="M3.8585 22.1044C1.42816 19.6758 0.0626011 16.3816 0.0622387 12.9466C0.0618782 9.51159 1.42674 6.21713 3.85657 3.78796C5.0597 2.58516 6.48807 1.63099 8.06013 0.979941C9.63219 0.328892 11.3172 -0.00629065 13.0188 -0.00646965C16.4555 -0.00683117 19.7515 1.35737 22.1819 3.78603C26.4712 8.07069 27.114 14.4411 24.1298 19.4159C24.0719 19.517 24.048 19.634 24.0617 19.7497C24.0753 19.8654 24.1258 19.9736 24.2057 20.0585L30.8157 26.6718C32.1285 27.9865 32.4448 29.8256 31.2773 30.9925L31.0768 31.1929C29.9106 32.3586 28.0706 32.0463 26.754 30.7316L20.1581 24.1375C20.0724 24.0523 19.9611 23.9974 19.8413 23.9814C19.7215 23.9654 19.5997 23.9891 19.4946 24.0488C14.5136 27.0329 8.14394 26.3852 3.8585 22.1044ZM19.7852 19.7102C21.1242 18.372 22.036 16.6669 22.4055 14.8106C22.7749 12.9544 22.5853 11.0303 21.8607 9.28178C21.1361 7.53322 19.909 6.0387 18.3346 4.98721C16.7602 3.93572 14.9092 3.37449 13.0157 3.37449C11.1222 3.37449 9.27114 3.93572 7.69674 4.98721C6.12233 6.0387 4.89524 7.53322 4.17063 9.28178C3.44603 11.0303 3.25646 12.9544 3.6259 14.8106C3.99534 16.6669 4.90719 18.372 6.24615 19.7102C8.04307 21.5019 10.4776 22.508 13.0157 22.508C15.5538 22.508 17.9883 21.5019 19.7852 19.7102Z" fill="#00A0E1"/>
</g>
<path d="M18.9623 12.1754C19.1828 12.1748 19.3998 12.1198 19.5939 12.0153C19.7881 11.9108 19.9534 11.76 20.0752 11.5763C20.1971 11.3926 20.2717 11.1817 20.2924 10.9622C20.3131 10.7428 20.2794 10.5217 20.1941 10.3184C19.3221 8.26487 17.6708 6.64089 15.6024 5.80271C13.5341 4.96453 11.2175 4.9806 9.16097 5.8474C8.83429 5.98544 8.57585 6.24754 8.44251 6.57603C8.30916 6.90453 8.31184 7.27252 8.44995 7.59905C8.58805 7.92557 8.85028 8.18389 9.17893 8.31716C9.50759 8.45044 9.87575 8.44777 10.2024 8.30973C11.6052 7.71882 13.1852 7.70802 14.5959 8.2797C16.0066 8.85138 17.133 9.95888 17.728 11.3594C17.8303 11.6013 18.0018 11.8078 18.2208 11.9529C18.4399 12.0981 18.6969 12.1755 18.9598 12.1754H18.9623Z" fill="#00A0E1"/>
</svg>
