<svg width="84" height="84" viewBox="0 0 84 84" fill="none" xmlns="http://www.w3.org/2000/svg">
<path d="M81.5391 79.0733H78.9141V32.1078C78.9135 31.0189 78.4812 29.9747 77.7122 29.2045C76.9432 28.4344 75.9003 28.0012 74.8125 28H68.25C67.1622 28.0012 66.1193 28.4344 65.3503 29.2045C64.5813 29.9747 64.149 31.0189 64.1484 32.1078V79.0755H59.2266V48.53C59.226 47.4412 58.7937 46.397 58.0247 45.6268C57.2557 44.8567 56.2128 44.4234 55.125 44.4223H48.5625C47.4747 44.4234 46.4318 44.8567 45.6628 45.6268C44.8938 46.397 44.4615 47.4412 44.4609 48.53V79.0755H39.5391V57.5601C39.5379 56.4716 39.1054 55.428 38.3365 54.6583C37.5675 53.8886 36.5249 53.4557 35.4375 53.4545H28.875C27.7876 53.4557 26.745 53.8886 25.976 54.6583C25.2071 55.428 24.7746 56.4716 24.7734 57.5601V79.0733H19.8516V63.4721C19.8504 62.3836 19.4179 61.34 18.649 60.5703C17.88 59.8007 16.8374 59.3677 15.75 59.3666H9.1875C8.10005 59.3677 7.05748 59.8007 6.28854 60.5703C5.5196 61.34 5.0871 62.3836 5.08594 63.4721V79.0733H2.46094C1.80826 79.0733 1.18231 79.3328 0.720792 79.7948C0.259277 80.2568 0 80.8833 0 81.5367C0 82.19 0.259277 82.8165 0.720792 83.2785C1.18231 83.7405 1.80826 84 2.46094 84H81.5391C82.1917 84 82.8177 83.7405 83.2792 83.2785C83.7407 82.8165 84 82.19 84 81.5367C84 80.8833 83.7407 80.2568 83.2792 79.7948C82.8177 79.3328 82.1917 79.0733 81.5391 79.0733ZM10.0078 79.0733V64.2954H14.9297V79.0755L10.0078 79.0733ZM29.6953 79.0733V58.3834H34.6172V79.0755L29.6953 79.0733ZM49.3828 79.0733V49.349H54.3047V79.0733H49.3828ZM69.0703 79.0733V32.9267H73.9922V79.0733H69.0703Z" fill="#00A0E1"/>
<path d="M2.46072 53C17.9031 53 34.6382 47.4155 49.5818 37.2731C61.1505 29.4206 70.7725 19.4426 76.7744 9.22559L79.163 18.166C79.3034 18.6904 79.6121 19.1537 80.0415 19.4844C80.4709 19.8151 80.997 19.9947 81.5384 19.9954C81.7541 19.9947 81.9688 19.9659 82.1771 19.9098C82.8074 19.7402 83.3446 19.3265 83.6707 18.7597C83.9968 18.1928 84.085 17.5193 83.916 16.8873L79.8782 1.80739C79.8782 1.80739 79.8782 1.80739 79.8782 1.79642C79.8782 1.78546 79.8607 1.73939 79.852 1.71088C79.7688 1.43933 79.6385 1.18463 79.467 0.958532V0.945371C79.4276 0.892729 79.3839 0.842279 79.338 0.79183L79.3117 0.761122C79.268 0.712867 79.2198 0.668998 79.1717 0.625129L79.1389 0.592228C78.8868 0.372832 78.5929 0.207158 78.2749 0.105285H78.2574C78.1852 0.0833506 78.1152 0.0636097 78.0387 0.0460622H77.9906C77.9293 0.0329015 77.8659 0.0219344 77.8047 0.0131606H77.7347C77.6778 0.0131606 77.6231 0.0131606 77.5662 0H77.3278L77.2228 0.0131606L77.0894 0.0285147L76.956 0.0592228L76.8619 0.0789637L61.8264 4.10392C61.2071 4.28302 60.6827 4.69859 60.3657 5.26132C60.0488 5.82405 59.9646 6.48901 60.1314 7.1133C60.2981 7.73759 60.7024 8.27136 61.2574 8.59989C61.8124 8.92843 62.4738 9.02551 63.0994 8.87026L72.787 6.26884C67.1984 16.0121 57.9855 25.6106 46.8215 33.1867C32.6849 42.7808 16.9297 48.0648 2.46072 48.0648C1.8081 48.0648 1.1822 48.3247 0.720728 48.7875C0.259254 49.2503 0 49.8779 0 50.5324C0 51.1868 0.259254 51.8145 0.720728 52.2773C1.1822 52.74 1.8081 53 2.46072 53Z" fill="#00A0E1"/>
</svg>
