<svg xmlns="http://www.w3.org/2000/svg" width="58" height="60" viewBox="0 0 58 60" fill="none">
<g clip-path="url(#clip0_613_325)">
<path d="M15.2792 9.80489C15.194 10.0676 15.194 10.3506 15.2794 10.6133C15.3647 10.876 15.531 11.105 15.7544 11.2675L22.5572 16.2099L19.9588 24.2069C19.8736 24.4695 19.8736 24.7524 19.959 25.0151C20.0444 25.2777 20.2107 25.5065 20.4341 25.6688C20.6575 25.8311 20.9266 25.9185 21.2027 25.9185C21.4789 25.9185 21.748 25.8311 21.9714 25.6687L28.7742 20.7263L35.577 25.6687C35.8005 25.8311 36.0695 25.9185 36.3457 25.9185C36.6218 25.9185 36.8909 25.8311 37.1143 25.6688C37.3377 25.5065 37.504 25.2777 37.5894 25.015C37.6748 24.7524 37.6748 24.4695 37.5896 24.2069L34.9912 16.2099L41.794 11.2675C42.0175 11.1051 42.1838 10.8762 42.2692 10.6135C42.3546 10.3508 42.3546 10.0678 42.2692 9.80515C42.1839 9.54245 42.0176 9.31351 41.7941 9.15114C41.5707 8.98877 41.3016 8.9013 41.0254 8.90127H32.6166L30.018 0.90434C29.9328 0.641524 29.7666 0.412449 29.5431 0.24998C29.3197 0.0875119 29.0505 0 28.7742 0C28.4979 0 28.2287 0.0875119 28.0053 0.24998C27.7818 0.412449 27.6155 0.641524 27.5303 0.90434L24.9318 8.90127H16.523C16.2469 8.90133 15.9778 8.98877 15.7544 9.15109C15.5309 9.31341 15.3646 9.54226 15.2792 9.80489ZM25.8823 11.5172C26.1586 11.5171 26.4277 11.4296 26.6512 11.2671C26.8746 11.1046 27.0409 10.8756 27.1262 10.6129L28.7742 5.5404L30.4222 10.6129C30.5075 10.8756 30.6738 11.1046 30.8972 11.2671C31.1206 11.4295 31.3898 11.5171 31.666 11.5172H36.9994L32.6851 14.6519C32.4616 14.8143 32.2953 15.0432 32.2099 15.306C32.1245 15.5687 32.1244 15.8517 32.2098 16.1145L33.8578 21.1869L29.5428 18.0515C29.3193 17.8893 29.0502 17.802 28.7741 17.802C28.498 17.802 28.2289 17.8893 28.0054 18.0515L23.6904 21.1869L25.339 16.1145C25.4241 15.8517 25.4239 15.5688 25.3386 15.3061C25.2532 15.0435 25.0871 14.8145 24.8638 14.6519L20.5488 11.5172H25.8823Z" fill="#ffffff"/>
<path d="M33.714 40.176C34.9854 39.1535 35.9081 37.7616 36.355 36.1924C36.8018 34.6232 36.7507 32.954 36.2086 31.4151C35.6666 29.8762 34.6603 28.5435 33.3287 27.6007C31.9971 26.6579 30.4057 26.1516 28.7741 26.1516C27.1426 26.1516 25.5512 26.6579 24.2196 27.6007C22.888 28.5435 21.8817 29.8762 21.3397 31.4151C20.7976 32.954 20.7465 34.6232 21.1933 36.1924C21.6402 37.7616 22.5629 39.1535 23.8343 40.176C22.0106 40.8411 20.3393 41.8665 18.92 43.191C17.5007 44.5155 16.3625 46.112 15.5731 47.8855C14.7837 49.6591 14.3592 51.5733 14.325 53.5143C14.2908 55.4553 14.6475 57.3833 15.3739 59.1836C15.4717 59.4249 15.6393 59.6315 15.8553 59.7769C16.0712 59.9224 16.3257 60.0001 16.586 60H40.9622C41.2226 60.0001 41.477 59.9224 41.693 59.7769C41.9089 59.6315 42.0765 59.4249 42.1744 59.1836C42.9008 57.3833 43.2575 55.4553 43.2232 53.5143C43.189 51.5733 42.7646 49.6591 41.9751 47.8856C41.1857 46.112 40.0475 44.5155 38.6283 43.191C37.209 41.8665 35.5377 40.8411 33.714 40.176ZM28.7741 44.1362L30.5267 48.5162L28.7741 50.2692L27.0216 48.5169L28.7741 44.1362ZM23.5079 34.0402C23.5079 32.9986 23.8168 31.9805 24.3954 31.1144C24.9741 30.2484 25.7966 29.5734 26.7588 29.1748C27.7211 28.7762 28.78 28.6719 29.8015 28.8751C30.8231 29.0783 31.7614 29.5799 32.4979 30.3164C33.2344 31.0529 33.736 31.9912 33.9392 33.0128C34.1424 34.0343 34.0381 35.0932 33.6395 36.0555C33.2409 37.0178 32.5659 37.8402 31.6999 38.4189C30.8339 38.9975 29.8157 39.3064 28.7741 39.3064C27.3779 39.3049 26.0393 38.7496 25.052 37.7623C24.0647 36.775 23.5094 35.4364 23.5079 34.0402ZM40.0469 57.3849H36.6556V53.7617C36.6556 53.4149 36.5178 53.0823 36.2726 52.837C36.0274 52.5918 35.6948 52.454 35.348 52.454C35.0012 52.454 34.6686 52.5918 34.4233 52.837C34.1781 53.0823 34.0403 53.4149 34.0403 53.7617V57.3848H23.5079V53.7617C23.5054 53.4164 23.3664 53.0862 23.1214 52.843C22.8764 52.5997 22.5452 52.4632 22.1999 52.4632C21.8547 52.4632 21.5234 52.5997 21.2784 52.843C21.0334 53.0862 20.8945 53.4164 20.892 53.7617V57.3848H17.5013C16.9851 55.7703 16.821 54.0639 17.0202 52.3806C17.2194 50.6973 17.7773 49.0764 18.6561 47.627C19.535 46.1776 20.7145 44.9335 22.115 43.9787C23.5155 43.0239 25.1044 42.3804 26.7747 42.0918L24.273 48.346C24.178 48.5835 24.1547 48.8437 24.2061 49.0944C24.2575 49.345 24.3813 49.5751 24.5622 49.756L27.8491 53.0437C28.0946 53.2887 28.4273 53.4263 28.7741 53.4263C29.121 53.4263 29.4536 53.2887 29.6992 53.0437L32.986 49.756C33.1669 49.5751 33.2907 49.345 33.3421 49.0944C33.3935 48.8437 33.3703 48.5835 33.2752 48.346L30.7742 42.0918C32.4455 42.3784 34.0357 43.0206 35.4373 43.975C36.839 44.9293 38.0193 46.1736 38.8984 47.6235C39.7776 49.0735 40.3351 50.6953 40.5332 52.3794C40.7314 54.0634 40.5655 55.7705 40.0469 57.3849Z" fill="#ffffff"/>
<path d="M57.4842 19.2423C57.3987 18.9797 57.2323 18.7509 57.0089 18.5885C56.7854 18.4262 56.5164 18.3388 56.2402 18.3386H51.1054L49.5189 13.4557C49.4336 13.193 49.2672 12.9641 49.0438 12.8018C48.8203 12.6394 48.5512 12.552 48.275 12.552C47.9988 12.552 47.7297 12.6394 47.5062 12.8018C47.2828 12.9641 47.1164 13.193 47.031 13.4557L45.4447 18.3386H40.3106C40.0344 18.3387 39.7653 18.4261 39.5418 18.5884C39.3183 18.7508 39.152 18.9797 39.0666 19.2423C38.9811 19.505 38.9811 19.788 39.0663 20.0507C39.1516 20.3134 39.3178 20.5424 39.5412 20.7049L43.695 23.7227L42.1086 28.6057C42.0233 28.8683 42.0233 29.1513 42.1086 29.414C42.1939 29.6766 42.3602 29.9056 42.5836 30.0679C42.8071 30.2303 43.0762 30.3178 43.3524 30.3179C43.6285 30.3179 43.8977 30.2305 44.1212 30.0682L48.2749 27.0504L52.4289 30.0682C52.6524 30.2307 52.9216 30.3182 53.1978 30.3182C53.4741 30.3182 53.7432 30.2307 53.9667 30.0683C54.1902 29.9059 54.3565 29.6769 54.4418 29.4141C54.5271 29.1514 54.5269 28.8683 54.4415 28.6057L52.8551 23.7227L57.0089 20.7049C57.2324 20.5425 57.3988 20.3136 57.4842 20.0508C57.5696 19.7881 57.5696 19.505 57.4842 19.2423ZM50.0739 23.6272L50.7097 25.5857L49.0443 24.3757C48.8209 24.2131 48.5517 24.1256 48.2754 24.1256C47.9991 24.1256 47.7299 24.2131 47.5064 24.3757L45.8404 25.5857L46.4769 23.6272C46.5622 23.3645 46.5622 23.0815 46.4768 22.8187C46.3915 22.556 46.2252 22.327 46.0017 22.1646L44.3356 20.9546H46.3953C46.6715 20.9546 46.9406 20.8672 47.164 20.7049C47.3875 20.5426 47.5539 20.3137 47.6393 20.051L48.2749 18.0925L48.9114 20.051C48.9968 20.3137 49.1632 20.5426 49.3866 20.7049C49.6101 20.8672 49.8792 20.9546 50.1554 20.9546H52.2151L50.549 22.1646C50.3255 22.327 50.1591 22.5559 50.0737 22.8187C49.9884 23.0814 49.9885 23.3645 50.0739 23.6272Z" fill="#ffffff"/>
<path d="M5.11933 30.0682L9.27333 27.0504L13.4271 30.0682C13.6506 30.2305 13.9197 30.3179 14.1959 30.3178C14.4721 30.3178 14.7412 30.2303 14.9646 30.0679C15.188 29.9055 15.3543 29.6766 15.4397 29.4139C15.525 29.1513 15.525 28.8683 15.4396 28.6056L13.8532 23.7226L18.007 20.7048C18.2304 20.5424 18.3967 20.3134 18.4819 20.0507C18.5672 19.788 18.5671 19.505 18.4817 19.2423C18.3963 18.9796 18.2299 18.7507 18.0065 18.5884C17.783 18.4261 17.5139 18.3386 17.2377 18.3386H12.1036L10.5172 13.4557C10.4318 13.193 10.2655 12.9641 10.042 12.8018C9.81855 12.6394 9.54944 12.552 9.27324 12.552C8.99704 12.552 8.72793 12.6394 8.50447 12.8018C8.28101 12.9641 8.11467 13.193 8.0293 13.4557L6.44288 18.3387H1.30807C1.03182 18.3386 0.76266 18.4261 0.539169 18.5884C0.315678 18.7508 0.149334 18.9798 0.0639872 19.2425C-0.02136 19.5052 -0.0213283 19.7882 0.0640779 20.0509C0.149484 20.3136 0.315879 20.5426 0.539406 20.7049L4.6932 23.7227L3.10682 28.6057C3.02132 28.8684 3.02121 29.1514 3.1065 29.4142C3.19178 29.6769 3.35809 29.9059 3.58156 30.0683C3.80503 30.2307 4.0742 30.3182 4.35045 30.3182C4.62671 30.3182 4.89587 30.2307 5.11933 30.0682ZM7.39273 20.9546C7.66894 20.9547 7.93807 20.8672 8.16154 20.7049C8.38502 20.5426 8.55136 20.3137 8.63673 20.051L9.27327 18.0925L9.90898 20.051C9.99437 20.3137 10.1607 20.5426 10.3842 20.7049C10.6077 20.8673 10.8768 20.9547 11.153 20.9547H13.2126L11.5465 22.1647C11.3231 22.3271 11.1568 22.5561 11.0714 22.8188C10.986 23.0815 10.986 23.3645 11.0713 23.6272L11.7079 25.5857L10.0418 24.3757C9.81836 24.2132 9.54916 24.1256 9.27286 24.1256C8.99655 24.1256 8.72736 24.2132 8.50393 24.3757L6.83802 25.5857L7.47438 23.6272C7.55978 23.3645 7.5598 23.0815 7.47443 22.8187C7.38907 22.556 7.2227 22.327 6.99919 22.1647L5.33311 20.9547L7.39273 20.9546Z" fill="#ffffff"/>
</g>
<defs fill="#ffffff">
<clipPath id="clip0_613_325" fill="#ffffff">
<rect width="57.5483" height="60" fill="#ffffff"/>
</clipPath>
</defs>
</svg>