<svg xmlns="http://www.w3.org/2000/svg" width="52" height="60" viewBox="0 0 52 60" fill="none">
<g clip-path="url(#clip0_613_333)">
<path d="M42.8571 53.5716C42.8572 53.853 42.8018 54.1317 42.6941 54.3917C42.5864 54.6517 42.4286 54.8879 42.2296 55.0869C42.0306 55.2859 41.7944 55.4437 41.5344 55.5514C41.2744 55.6591 40.9957 55.7145 40.7143 55.7144H6.42859C6.14717 55.7145 5.8685 55.6591 5.6085 55.5514C5.34849 55.4437 5.11224 55.2859 4.91325 55.0869C4.71425 54.8879 4.55641 54.6517 4.44874 54.3917C4.34106 54.1317 4.28567 53.853 4.28571 53.5716V27.8573C4.28566 27.5759 4.34105 27.2972 4.44872 27.0372C4.55639 26.7772 4.71424 26.5409 4.91323 26.3419C5.11222 26.1429 5.34847 25.9851 5.60848 25.8774C5.86849 25.7698 6.14717 25.7144 6.42859 25.7144H14.0541C14.5038 25.7144 14.9422 25.856 15.307 26.119C15.6719 26.3821 15.9447 26.7533 16.0868 27.18L16.2759 27.7471C16.7025 29.0272 17.521 30.1405 18.6156 30.9295C19.7101 31.7185 21.0252 32.143 22.3745 32.143H23.7236C23.9355 30.6575 24.3708 29.2126 25.0147 27.8573H22.3745C21.9247 27.8573 21.4864 27.7157 21.1215 27.4527C20.7567 27.1897 20.4839 26.8185 20.3418 26.3918L20.1527 25.8246C19.7261 24.5445 18.9075 23.4312 17.813 22.6422C16.7184 21.8532 15.4033 21.4287 14.0541 21.4287H4.28571V21.7943C3.03226 22.2379 1.94712 23.0591 1.17963 24.1449C0.412137 25.2307 2.14719e-05 26.5277 1.7503e-09 27.8573L1.75029e-09 53.5716C-1.96977e-05 54.4158 0.166248 55.2518 0.489308 56.0317C0.812369 56.8117 1.2859 57.5204 1.88285 58.1173C2.4798 58.7143 3.1885 59.1878 3.96846 59.5108C4.74842 59.8339 5.58437 60.0001 6.42859 60.0001H40.7143C41.5585 60.0001 42.3945 59.8339 43.1744 59.5108C43.9544 59.1878 44.6631 58.7143 45.26 58.1173C45.857 57.5204 46.3305 56.8117 46.6536 56.0317C46.9766 55.2518 47.1429 54.4158 47.1429 53.5716V46.5975C45.8339 47.5111 44.387 48.2089 42.8571 48.6645V53.5716Z" fill="#ffffff"/>
<path d="M32.1429 8.57154H15C14.7182 8.57093 14.4391 8.62591 14.1786 8.73332C13.9181 8.84074 13.6813 8.99848 13.4818 9.19753C13.2823 9.39657 13.1241 9.633 13.0161 9.89329C12.9081 10.1536 12.8525 10.4326 12.8525 10.7144C12.8525 10.9962 12.9081 11.2752 13.0161 11.5355C13.1241 11.7958 13.2823 12.0322 13.4818 12.2313C13.6813 12.4303 13.9181 12.588 14.1786 12.6955C14.4391 12.8029 14.7182 12.8579 15 12.8572H32.1429C32.7104 12.856 33.2543 12.6297 33.6551 12.228C34.056 11.8263 34.2811 11.2819 34.2811 10.7144C34.2811 10.1469 34.056 9.60253 33.6551 9.2008C33.2543 8.79907 32.7104 8.57276 32.1429 8.57154Z" fill="#ffffff"/>
<path d="M32.143 15H15.0001C14.4326 15.0012 13.8887 15.2275 13.4878 15.6293C13.0869 16.031 12.8618 16.5754 12.8618 17.1429C12.8618 17.7104 13.0869 18.2548 13.4878 18.6565C13.8887 19.0582 14.4326 19.2845 15.0001 19.2858H32.143C32.7105 19.2845 33.2543 19.0582 33.6552 18.6565C34.0561 18.2548 34.2812 17.7104 34.2812 17.1429C34.2812 16.5754 34.0561 16.031 33.6552 15.6293C33.2543 15.2275 32.7105 15.0012 32.143 15Z" fill="#ffffff"/>
<path d="M41.3421 30.628L37.0151 34.9541L36.2024 33.3275C35.9483 32.8191 35.5025 32.4325 34.9633 32.2528C34.4241 32.073 33.8356 32.1149 33.3272 32.3691C32.8189 32.6232 32.4323 33.069 32.2526 33.6082C32.0728 34.1474 32.1146 34.7359 32.3688 35.2443L34.5117 39.53C34.6636 39.8336 34.8855 40.0968 35.159 40.2979C35.4326 40.499 35.75 40.6322 36.0851 40.6866C36.4203 40.7409 36.7635 40.7149 37.0866 40.6106C37.4097 40.5063 37.7034 40.3267 37.9435 40.0866L44.3721 33.658C44.571 33.4591 44.7288 33.2229 44.8365 32.9629C44.9442 32.703 44.9996 32.4244 44.9996 32.143C44.9996 31.8617 44.9442 31.5831 44.8365 31.3231C44.7288 31.0632 44.571 30.827 44.3721 30.628C44.1731 30.4291 43.9369 30.2713 43.677 30.1636C43.417 30.0559 43.1384 30.0005 42.8571 30.0005C42.5757 30.0005 42.2971 30.0559 42.0371 30.1636C41.7772 30.2713 41.541 30.429 41.3421 30.628Z" fill="#ffffff"/>
<path d="M38.5715 21.4287C36.0286 21.4287 33.5428 22.1828 31.4284 23.5955C29.3141 25.0083 27.6662 27.0163 26.693 29.3657C25.7199 31.715 25.4653 34.3001 25.9614 36.7942C26.4575 39.2882 27.682 41.5791 29.4801 43.3772C31.2782 45.1753 33.5692 46.3999 36.0632 46.896C38.5572 47.3921 41.1424 47.1374 43.4917 46.1643C45.8411 45.1912 47.8491 43.5433 49.2618 41.4289C50.6746 39.3146 51.4287 36.8288 51.4287 34.2859C51.4287 32.5974 51.0962 30.9255 50.4501 29.3656C49.8039 27.8057 48.8569 26.3883 47.663 25.1944C46.4691 24.0005 45.0517 23.0534 43.4918 22.4073C41.9318 21.7612 40.2599 21.4287 38.5715 21.4287ZM38.5715 42.8573C36.8762 42.8573 35.219 42.3546 33.8094 41.4127C32.3999 40.4709 31.3013 39.1322 30.6525 37.566C30.0038 35.9997 29.834 34.2763 30.1648 32.6136C30.4955 30.9509 31.3118 29.4236 32.5106 28.2249C33.7093 27.0262 35.2366 26.2098 36.8993 25.8791C38.562 25.5484 40.2855 25.7181 41.8517 26.3669C43.4179 27.0156 44.7566 28.1143 45.6984 29.5238C46.6403 30.9334 47.143 32.5906 47.143 34.2859C47.1428 36.5591 46.2397 38.7393 44.6323 40.3467C43.0249 41.9541 40.8447 42.8572 38.5715 42.8573Z" fill="#ffffff"/>
<path d="M8.57134 6.42859C8.5713 6.14717 8.6267 5.86851 8.73437 5.6085C8.84205 5.3485 8.99989 5.11226 9.19889 4.91327C9.39788 4.71428 9.63413 4.55644 9.89413 4.44878C10.1541 4.34111 10.4328 4.28572 10.7142 4.28577H36.4285C36.7099 4.28573 36.9886 4.34112 37.2486 4.44879C37.5086 4.55646 37.7448 4.7143 37.9438 4.91329C38.1428 5.11228 38.3007 5.34852 38.4083 5.60852C38.516 5.86851 38.5714 6.14718 38.5713 6.42859V19.2858C40.0225 19.2844 41.4661 19.4937 42.8571 19.9072V6.42859C42.8571 5.58437 42.6908 4.74842 42.3678 3.96846C42.0447 3.1885 41.5712 2.4798 40.9742 1.88285C40.3773 1.2859 39.6686 0.812369 38.8887 0.489308C38.1087 0.166248 37.2727 -1.96974e-05 36.4285 1.9914e-09L10.7142 1.9914e-09C9.87 -2.10105e-05 9.03405 0.166245 8.25409 0.489305C7.47412 0.812364 6.76543 1.28589 6.16848 1.88284C5.57153 2.4798 5.098 3.18849 4.77495 3.96845C4.45189 4.74841 4.28562 5.58437 4.28564 6.42859V21.4286H8.57134V6.42859Z" fill="#ffffff"/>
</g>
<defs fill="#ffffff">
<clipPath id="clip0_613_333" fill="#ffffff">
<rect width="51.4286" height="60" fill="white"/>
</clipPath>
</defs>
</svg>