<svg xmlns="http://www.w3.org/2000/svg" width="61" height="60" viewBox="0 0 61 60" fill="none">
<g clip-path="url(#clip0_613_341)">
<path d="M30.9816 33.7282C30.1424 33.7282 29.293 33.708 28.4333 33.6676L27.9496 33.6686C18.8304 33.6686 11.3934 30.8869 6.44226 25.6244C1.75922 20.6464 -0.443009 13.5451 0.0739059 5.08725C0.16367 3.69424 0.785974 2.38917 1.81184 1.44253C2.83771 0.495885 4.18848 -0.0197462 5.5842 0.00249984C6.73489 -0.00375786 7.8551 0.372088 8.76916 1.07109C12.0479 3.46379 15.4909 5.62285 19.0727 7.5323C21.171 8.61832 23.1838 9.86196 25.0939 11.2525C25.2882 11.4037 25.4507 11.5917 25.5723 11.8057C25.6938 12.0198 25.7721 12.2557 25.8025 12.4999C25.8329 12.7442 25.8149 12.9921 25.7495 13.2294C25.6841 13.4667 25.5726 13.6888 25.4214 13.883C25.2702 14.0772 25.0822 14.2398 24.8682 14.3613C24.6541 14.4829 24.4182 14.5611 24.174 14.5915C23.9297 14.622 23.6819 14.604 23.4445 14.5386C23.2072 14.4732 22.9851 14.3617 22.7909 14.2105C21.0381 12.947 19.1945 11.8145 17.2752 10.822C13.5462 8.83005 9.96081 6.58031 6.54509 4.08917C6.25049 3.86836 5.89233 3.74884 5.52416 3.74849C5.24999 3.74982 4.97939 3.81082 4.73116 3.92725C4.47039 4.04055 4.24667 4.22481 4.08549 4.45903C3.92431 4.69325 3.83214 4.96802 3.81948 5.25206C3.44359 12.9095 5.23765 18.9158 9.15151 23.1033C13.2282 27.4646 19.4938 29.7532 27.7749 29.9057L28.2878 29.9151L28.2928 29.4022C28.4383 14.5298 33.3631 11.7669 41.5235 7.18918C44.9026 5.37106 48.156 3.32862 51.262 1.07556C52.2052 0.374262 53.35 -0.00304268 54.5254 1.84807e-05C55.3527 -0.000678107 56.1696 0.184458 56.9158 0.541758C57.7924 0.944139 58.5408 1.58084 59.0784 2.38162C59.6161 3.1824 59.9221 4.11613 59.9627 5.0798C60.4046 13.8435 58.2575 20.7795 53.5819 25.6978C48.5866 30.9514 40.7717 33.7282 30.9816 33.7282ZM54.5234 3.7525C54.1416 3.74454 53.769 3.86991 53.4697 4.10704C50.0603 6.59077 46.4824 8.83466 42.7619 10.8225C35.3891 14.9127 32.3372 16.6054 32.0383 29.3783L32.0264 29.9121L32.5597 29.8987C40.5592 29.6951 46.6698 27.4706 50.7218 23.2865C54.729 19.1487 56.5781 13.0813 56.2176 5.25205C56.2049 4.96798 56.1127 4.69319 55.9515 4.45891C55.7903 4.22464 55.5667 4.04026 55.306 3.92674C55.0626 3.80754 54.7944 3.74782 54.5234 3.7525Z" fill="#ffffff"/>
<path d="M10.2493 59.997C3.27613 59.7318 0.0956833 54.516 0.0966799 49.7818C0.0971681 45.0466 3.27763 39.8308 10.2597 39.5675C12.9072 39.6904 15.5418 40.0107 18.1416 40.5259C20.6844 41.0269 23.2601 41.3439 25.8486 41.4743C26.452 41.4569 27.0259 41.2093 27.4527 40.7824C27.8795 40.3556 28.1269 39.7816 28.1442 39.1782C28.1449 38.6814 28.3425 38.2052 28.6938 37.8539C29.0451 37.5026 29.5214 37.3049 30.0182 37.3043C30.406 37.2925 30.7871 37.4074 31.1037 37.6315C31.4204 37.8557 31.6554 38.177 31.7731 38.5467C32.2646 40.1009 31.1971 42.5589 29.9864 43.5589C28.863 44.6103 27.3872 45.2039 25.8486 45.2234C23.0528 45.0989 20.2702 44.7649 17.5243 44.2243C15.1207 43.751 12.6867 43.4476 10.2404 43.3166C8.53402 43.327 6.90098 44.0115 5.69718 45.2208C4.49338 46.4302 3.81643 48.0663 3.81388 49.7727C3.81133 51.479 4.48339 53.1172 5.68357 54.3302C6.88375 55.5431 8.51474 56.2325 10.221 56.248L10.4683 56.249C15.9731 56.249 20.8076 54.0701 25.4832 51.9627C29.4492 50.1751 33.1952 48.4868 37.3395 47.9972L37.6722 47.9585L37.7675 47.6377C38.2625 45.9995 39.2697 44.5631 40.6412 43.5396C42.0128 42.5161 43.6764 41.9593 45.3877 41.9511L49.094 41.9521L49.1129 41.4625C49.1122 41.216 49.1602 40.9719 49.2541 40.744C49.3479 40.5161 49.4858 40.309 49.6599 40.1344C49.8339 39.9599 50.0406 39.8214 50.2683 39.7269C50.4959 39.6324 50.7399 39.5837 50.9864 39.5837C51.2328 39.5836 51.4769 39.6321 51.7046 39.7265C51.9322 39.8209 52.1391 39.9593 52.3132 40.1337C52.4873 40.3081 52.6253 40.5152 52.7193 40.743C52.8133 40.9709 52.8614 41.215 52.8609 41.4615V43.1428H58.1363C58.6326 43.1467 59.1071 43.3471 59.4558 43.7003C59.8044 44.0534 59.9988 44.5305 59.9963 45.0267C59.9939 45.523 59.7947 45.9981 59.4424 46.3477C59.0902 46.6973 58.6137 46.893 58.1174 46.8918H52.8608V52.6737H58.1363C58.6325 52.6776 59.107 52.878 59.4557 53.2312C59.8044 53.5843 59.9988 54.0614 59.9963 54.5576C59.9938 55.0539 59.7946 55.529 59.4424 55.8786C59.0902 56.2282 58.6137 56.4239 58.1174 56.4227H52.8618V58.122C52.8577 58.6023 52.6693 59.0628 52.3357 59.4084C52.002 59.754 51.5484 59.9583 51.0685 59.9793C50.5886 60.0004 50.1189 59.8364 49.7563 59.5213C49.3937 59.2062 49.1659 58.764 49.1197 58.2858L49.0651 57.8379L45.3956 57.8518C43.6808 57.8444 42.0137 57.2867 40.6397 56.2606C39.2657 55.2346 38.2575 53.7944 37.7635 52.1523L37.6324 51.7104L37.1805 51.7968C33.4561 52.6533 29.8432 53.938 26.4142 55.6253C21.5892 57.7764 16.5998 59.9999 10.6247 59.9999L10.2493 59.997ZM45.3688 45.7001C44.262 45.7115 43.2044 46.1592 42.4257 46.9458C41.647 47.7325 41.2102 48.7946 41.21 49.9014C41.2099 51.0083 41.6465 52.0705 42.425 52.8574C43.2035 53.6442 44.261 54.0921 45.3678 54.1038L49.1128 54.0889V45.7011L45.3777 45.7001L45.3688 45.7001Z" fill="#ffffff"/>
<path d="M20.3657 23.4161C19.9681 23.4173 19.5807 23.2904 19.2609 23.0541C17.4852 21.7592 15.637 20.5668 13.7252 19.4829C13.5111 19.3616 13.3229 19.1993 13.1714 19.0052C13.02 18.8112 12.9082 18.5892 12.8426 18.352C12.7769 18.1147 12.7586 17.8669 12.7887 17.6226C12.8189 17.3783 12.8968 17.1423 13.0181 16.9281C13.1395 16.7139 13.3018 16.5258 13.4958 16.3743C13.6899 16.2229 13.9119 16.1111 14.1491 16.0455C14.3863 15.9798 14.6342 15.9615 14.8785 15.9916C15.1228 16.0218 15.3588 16.0997 15.5729 16.221C17.6119 17.3771 19.583 18.649 21.4765 20.0306C21.7952 20.2644 22.0319 20.593 22.1526 20.9693C22.2734 21.3457 22.2721 21.7506 22.1488 22.1262C22.0256 22.5018 21.7868 22.8288 21.4665 23.0604C21.1463 23.2921 20.761 23.4166 20.3657 23.4161Z" fill="#ffffff"/>
<path d="M40.0289 23.4162C39.6335 23.4169 39.2481 23.2925 38.9277 23.0609C38.6073 22.8292 38.3684 22.5021 38.2452 22.1264C38.1219 21.7507 38.1207 21.3456 38.2417 20.9692C38.3627 20.5928 38.5996 20.2643 38.9186 20.0307C40.8117 18.6488 42.7827 17.3769 44.8217 16.2211C45.2542 15.9762 45.7663 15.9131 46.2454 16.0457C46.7244 16.1783 47.1312 16.4958 47.3762 16.9282C47.6213 17.3607 47.6845 17.8728 47.552 18.3519C47.4196 18.831 47.1023 19.2378 46.6699 19.483C44.7579 20.5664 42.9097 21.7587 41.1342 23.0537C40.8143 23.2902 40.4267 23.4173 40.0289 23.4162Z" fill="#ffffff"/>
</g>
<defs fill="#ffffff">
<clipPath id="clip0_613_341" fill="#ffffff">
<rect width="60.0193" height="60" fill="white"/>
</clipPath>
</defs>
</svg>