<svg xmlns="http://www.w3.org/2000/svg" width="68" height="60" viewBox="0 0 68 60" fill="none">
<g clip-path="url(#clip0_613_346)">
<path d="M12.9141 38.5203C12.3373 38.5203 11.7841 38.2912 11.3763 37.8833C10.9684 37.4755 10.7393 36.9223 10.7393 36.3455C10.7393 35.7687 10.9684 35.2155 11.3763 34.8076C11.7841 34.3998 12.3373 34.1707 12.9141 34.1707H20.9688C21.5456 34.1707 22.0987 34.3998 22.5066 34.8076C22.9144 35.2155 23.1436 35.7687 23.1436 36.3455C23.1436 36.9223 22.9144 37.4755 22.5066 37.8833C22.0987 38.2912 21.5456 38.5203 20.9688 38.5203H12.9141Z" fill="#ffffff"/>
<path d="M12.914 27.7803C12.338 27.7791 11.7861 27.5494 11.3792 27.1417C10.9724 26.734 10.7439 26.1815 10.7439 25.6055C10.7439 25.0295 10.9724 24.4771 11.3792 24.0693C11.7861 23.6616 12.338 23.4319 12.914 23.4307H20.9687C21.2547 23.43 21.538 23.4858 21.8024 23.5949C22.0668 23.7039 22.3071 23.864 22.5096 24.066C22.712 24.268 22.8726 24.508 22.9822 24.7721C23.0918 25.0363 23.1482 25.3195 23.1482 25.6055C23.1482 25.8915 23.0918 26.1747 22.9822 26.4389C22.8726 26.703 22.712 26.943 22.5096 27.145C22.3071 27.347 22.0668 27.5071 21.8024 27.6161C21.538 27.7252 21.2547 27.781 20.9687 27.7803H12.914Z" fill="#ffffff"/>
<path d="M31.3658 38.5203C30.7892 38.5196 30.2363 38.2903 29.8285 37.8825C29.4208 37.4747 29.1914 36.9219 29.1907 36.3452C29.1836 33.6509 29.7107 30.9819 30.7416 28.4927C31.7726 26.0034 33.2869 23.7433 35.1969 21.843L54.8324 2.20653C56.248 0.794861 58.166 0.0027494 60.1652 0.00415225C62.1645 0.0055551 64.0814 0.800358 65.495 2.21401C66.9087 3.62766 67.7035 5.54458 67.7049 7.54379C67.7063 9.54299 66.9142 11.461 65.5025 12.8767L45.867 32.5132C43.9673 34.4237 41.7074 35.9383 39.2182 36.9695C36.7291 38.0006 34.0601 38.5277 31.3658 38.5203ZM60.1679 4.34723C59.7482 4.3458 59.3323 4.42768 58.9444 4.5881C58.5565 4.74852 58.2043 4.98431 57.9082 5.28181L38.2737 24.9193C35.9833 27.1974 34.4338 30.1138 33.8279 33.2868L33.6874 34.0242L34.4247 33.8837C37.5973 33.2772 40.5132 31.7278 42.7912 29.4379L62.4277 9.80091C62.8748 9.35419 63.1793 8.78486 63.3027 8.16499C63.4261 7.54512 63.3628 6.90258 63.1209 6.31869C62.879 5.7348 62.4692 5.23581 61.9436 4.88488C61.4179 4.53395 60.8 4.34681 60.1679 4.34723Z" fill="#ffffff"/>
<path d="M7.54452 60C5.54423 59.9976 3.62655 59.2019 2.21217 57.7874C0.797798 56.373 0.00223038 54.4552 0 52.4549L0 20.2358C0.00365094 16.8118 1.36537 13.5291 3.78639 11.1079C6.20741 8.68669 9.49 7.32472 12.914 7.32081H35.434C35.72 7.32019 36.0033 7.37598 36.2677 7.485C36.5321 7.59402 36.7724 7.75412 36.9748 7.95613C37.1773 8.15815 37.3379 8.39811 37.4475 8.66228C37.5571 8.92645 37.6135 9.20964 37.6135 9.49564C37.6135 9.78164 37.5571 10.0648 37.4475 10.329C37.3379 10.5932 37.1773 10.8331 36.9748 11.0351C36.7724 11.2372 36.5321 11.3973 36.2677 11.5063C36.0033 11.6153 35.72 11.6711 35.434 11.6705H12.914C10.6432 11.6731 8.46613 12.5764 6.86047 14.1821C5.25482 15.7879 4.35167 17.965 4.34917 20.2358V52.4549C4.34912 53.0717 4.52757 53.6753 4.86298 54.1928C5.19839 54.7104 5.67642 55.1199 6.23939 55.3717C6.80236 55.6236 7.42619 55.7072 8.03561 55.6124C8.64502 55.5175 9.21397 55.2484 9.67378 54.8373L14.1495 50.8344C14.548 50.4774 15.0642 50.2801 15.5992 50.2804H44.0595C46.3303 50.2777 48.5074 49.3745 50.113 47.7687C51.7187 46.163 52.6219 43.9859 52.6244 41.7151V35.6925C52.6244 35.1156 52.8535 34.5624 53.2614 34.1545C53.6693 33.7466 54.2226 33.5174 54.7994 33.5174C55.3763 33.5174 55.9295 33.7466 56.3375 34.1545C56.7454 34.5624 56.9745 35.1156 56.9745 35.6925V41.7151C56.9707 45.1391 55.6087 48.4219 53.1875 50.8431C50.7664 53.2643 47.4836 54.6262 44.0595 54.6301H16.4292L12.5733 58.08C11.1906 59.3173 9.39998 60.0009 7.54452 60Z" fill="#ffffff"/>
</g>
<defs fill="#ffffff">
<clipPath id="clip0_613_346" fill="#ffffff">
<rect width="67.7084" height="60" fill="white"/>
</clipPath>
</defs>
</svg>